{
	"asset":{
		"generator":"Khronos glTF Blender I/O v3.6.28",
		"version":"2.0"
	},
	"scene":0,
	"scenes":[
		{
			"name":"Scene",
			"nodes":[
				0
			]
		}
	],
	"nodes":[
		{
			"mesh":0,
			"name":"Psyche_Spacecraft_-_Antenna"
		}
	],
	"materials":[
		{
			"doubleSided":true,
			"name":"Material.001",
			"pbrMetallicRoughness":{
				"baseColorFactor":[
					0.5277178883552551,
					0.5277178883552551,
					0.5277178883552551,
					1
				],
				"metallicFactor":0,
				"roughnessFactor":0.5
			}
		},
		{
			"doubleSided":true,
			"name":"Material.002",
			"pbrMetallicRoughness":{
				"baseColorFactor":[
					0.11493517458438873,
					0.11493517458438873,
					0.11493517458438873,
					1
				],
				"metallicFactor":0,
				"roughnessFactor":0.5
			}
		}
	],
	"meshes":[
		{
			"name":"Psyche_Spacecraft_-_Antenna",
			"primitives":[
				{
					"attributes":{
						"POSITION":0,
						"NORMAL":1
					},
					"indices":2,
					"material":0
				},
				{
					"attributes":{
						"POSITION":3,
						"NORMAL":4
					},
					"indices":5,
					"material":1
				}
			]
		}
	],
	"accessors":[
		{
			"bufferView":0,
			"componentType":5126,
			"count":7357,
			"max":[
				29.5,
				73.91000366210938,
				20.91400146484375
			],
			"min":[
				-7.000000953674316,
				46,
				-8
			],
			"type":"VEC3"
		},
		{
			"bufferView":1,
			"componentType":5126,
			"count":7357,
			"type":"VEC3"
		},
		{
			"bufferView":2,
			"componentType":5123,
			"count":8067,
			"type":"SCALAR"
		},
		{
			"bufferView":3,
			"componentType":5126,
			"count":491,
			"max":[
				29.5,
				73.91000366210938,
				20.91400146484375
			],
			"min":[
				-7.000000953674316,
				46,
				-8
			],
			"type":"VEC3"
		},
		{
			"bufferView":4,
			"componentType":5126,
			"count":491,
			"type":"VEC3"
		},
		{
			"bufferView":5,
			"componentType":5123,
			"count":720,
			"type":"SCALAR"
		}
	],
	"bufferViews":[
		{
			"buffer":0,
			"byteLength":88284,
			"byteOffset":0,
			"target":34962
		},
		{
			"buffer":0,
			"byteLength":88284,
			"byteOffset":88284,
			"target":34962
		},
		{
			"buffer":0,
			"byteLength":16134,
			"byteOffset":176568,
			"target":34963
		},
		{
			"buffer":0,
			"byteLength":5892,
			"byteOffset":192704,
			"target":34962
		},
		{
			"buffer":0,
			"byteLength":5892,
			"byteOffset":198596,
			"target":34962
		},
		{
			"buffer":0,
			"byteLength":1440,
			"byteOffset":204488,
			"target":34963
		}
	],
	"buffers":[
		{
			"byteLength":205928,
			"uri":"data:application/octet-stream;base64,"
		}
	]
}
