{
	"asset":{
		"generator":"Khronos glTF Blender I/O v3.6.28",
		"version":"2.0"
	},
	"scene":0,
	"scenes":[
		{
			"name":"Scene",
			"nodes":[
				0
			]
		}
	],
	"nodes":[
		{
			"mesh":0,
			"name":"Psyche_Spacecraft_-_Antenna",
			"scale":[
				0.009999999776482582,
				0.009999999776482582,
				0.009999999776482582
			]
		}
	],
	"materials":[
		{
			"doubleSided":true,
			"name":"Material.001",
			"pbrMetallicRoughness":{
				"baseColorFactor":[
					0.5277178883552551,
					0.5277178883552551,
					0.5277178883552551,
					1
				],
				"metallicFactor":0,
				"roughnessFactor":0.5
			}
		},
		{
			"doubleSided":true,
			"name":"Material.002",
			"pbrMetallicRoughness":{
				"baseColorFactor":[
					0.11493517458438873,
					0.11493517458438873,
					0.11493517458438873,
					1
				],
				"metallicFactor":0,
				"roughnessFactor":0.5
			}
		}
	],
	"meshes":[
		{
			"name":"Psyche_Spacecraft_-_Antenna",
			"primitives":[
				{
					"attributes":{
						"POSITION":0,
						"NORMAL":1
					},
					"indices":2,
					"material":0
				},
				{
					"attributes":{
						"POSITION":3,
						"NORMAL":4
					},
					"indices":5,
					"material":1
				}
			]
		}
	],
	"accessors":[
		{
			"bufferView":0,
			"componentType":5126,
			"count":7408,
			"max":[
				18.39076042175293,
				19.225536346435547,
				18.356063842773438
			],
			"min":[
				-18.109241485595703,
				-8.684467315673828,
				-10.557936668395996
			],
			"type":"VEC3"
		},
		{
			"bufferView":1,
			"componentType":5126,
			"count":7408,
			"type":"VEC3"
		},
		{
			"bufferView":2,
			"componentType":5123,
			"count":8067,
			"type":"SCALAR"
		},
		{
			"bufferView":3,
			"componentType":5126,
			"count":512,
			"max":[
				18.39076042175293,
				19.225536346435547,
				18.356063842773438
			],
			"min":[
				-18.109241485595703,
				-8.684467315673828,
				-10.557936668395996
			],
			"type":"VEC3"
		},
		{
			"bufferView":4,
			"componentType":5126,
			"count":512,
			"type":"VEC3"
		},
		{
			"bufferView":5,
			"componentType":5123,
			"count":720,
			"type":"SCALAR"
		}
	],
	"bufferViews":[
		{
			"buffer":0,
			"byteLength":88896,
			"byteOffset":0,
			"target":34962
		},
		{
			"buffer":0,
			"byteLength":88896,
			"byteOffset":88896,
			"target":34962
		},
		{
			"buffer":0,
			"byteLength":16134,
			"byteOffset":177792,
			"target":34963
		},
		{
			"buffer":0,
			"byteLength":6144,
			"byteOffset":193928,
			"target":34962
		},
		{
			"buffer":0,
			"byteLength":6144,
			"byteOffset":200072,
			"target":34962
		},
		{
			"buffer":0,
			"byteLength":1440,
			"byteOffset":206216,
			"target":34963
		}
	],
	"buffers":[
		{
			"byteLength":207656,
			"uri":"data:application/octet-stream;base64,"
		}
	]
}
