{
	"asset":{
		"generator":"Khronos glTF Blender I/O v3.6.28",
		"version":"2.0"
	},
	"scene":0,
	"scenes":[
		{
			"name":"Scene",
			"nodes":[
				0
			]
		}
	],
	"nodes":[
		{
			"mesh":0,
			"name":"Psyche_Spacecraft_-_Bus",
			"scale":[
				0.009999999776482582,
				0.009999999776482582,
				0.009999999776482582
			]
		}
	],
	"materials":[
		{
			"doubleSided":true,
			"name":"Material.003",
			"pbrMetallicRoughness":{
				"baseColorFactor":[
					0.3654601275920868,
					0.44797858595848083,
					0.44797858595848083,
					1
				],
				"metallicFactor":0,
				"roughnessFactor":0.5
			}
		},
		{
			"doubleSided":true,
			"name":"Material.004",
			"pbrMetallicRoughness":{
				"baseColorFactor":[
					0.023650629445910454,
					0.023650629445910454,
					0.023650629445910454,
					1
				],
				"metallicFactor":0,
				"roughnessFactor":0.5
			}
		},
		{
			"doubleSided":true,
			"name":"Material.005",
			"pbrMetallicRoughness":{
				"baseColorFactor":[
					0.800655722618103,
					0.19530650973320007,
					0.009058292023837566,
					1
				],
				"metallicFactor":0,
				"roughnessFactor":0.5
			}
		},
		{
			"doubleSided":true,
			"name":"Material.006",
			"pbrMetallicRoughness":{
				"baseColorFactor":[
					0.5277189016342163,
					0.5277189016342163,
					0.5277189016342163,
					1
				],
				"metallicFactor":0,
				"roughnessFactor":0.5
			}
		},
		{
			"doubleSided":true,
			"name":"Material.007",
			"pbrMetallicRoughness":{
				"baseColorFactor":[
					0.010021759197115898,
					0.010021759197115898,
					0.010021759197115898,
					1
				],
				"metallicFactor":0,
				"roughnessFactor":0.5
			}
		}
	],
	"meshes":[
		{
			"name":"Psyche_Spacecraft_-_Bus",
			"primitives":[
				{
					"attributes":{
						"POSITION":0,
						"NORMAL":1
					},
					"indices":2,
					"material":0
				},
				{
					"attributes":{
						"POSITION":3,
						"NORMAL":4
					},
					"indices":5,
					"material":1
				},
				{
					"attributes":{
						"POSITION":6,
						"NORMAL":7
					},
					"indices":8,
					"material":2
				},
				{
					"attributes":{
						"POSITION":9,
						"NORMAL":10
					},
					"indices":11,
					"material":3
				},
				{
					"attributes":{
						"POSITION":12,
						"NORMAL":13
					},
					"indices":14,
					"material":4
				}
			]
		}
	],
	"accessors":[
		{
			"bufferView":0,
			"componentType":5126,
			"count":192,
			"max":[
				22.2137393951416,
				25.668720245361328,
				24.499706268310547
			],
			"min":[
				-21.786258697509766,
				-24.931278228759766,
				-24.30029296875
			],
			"type":"VEC3"
		},
		{
			"bufferView":1,
			"componentType":5126,
			"count":192,
			"type":"VEC3"
		},
		{
			"bufferView":2,
			"componentType":5123,
			"count":702,
			"type":"SCALAR"
		},
		{
			"bufferView":3,
			"componentType":5126,
			"count":312,
			"max":[
				25.01373863220215,
				21.568721771240234,
				25.299707412719727
			],
			"min":[
				-23.686260223388672,
				-22.931278228759766,
				-28.80029296875
			],
			"type":"VEC3"
		},
		{
			"bufferView":4,
			"componentType":5126,
			"count":312,
			"type":"VEC3"
		},
		{
			"bufferView":5,
			"componentType":5123,
			"count":516,
			"type":"SCALAR"
		},
		{
			"bufferView":6,
			"componentType":5126,
			"count":320,
			"max":[
				25.01373863220215,
				21.568721771240234,
				21.749706268310547
			],
			"min":[
				-23.686260223388672,
				-22.931278228759766,
				-22.750293731689453
			],
			"type":"VEC3"
		},
		{
			"bufferView":7,
			"componentType":5126,
			"count":320,
			"type":"VEC3"
		},
		{
			"bufferView":8,
			"componentType":5123,
			"count":480,
			"type":"SCALAR"
		},
		{
			"bufferView":9,
			"componentType":5126,
			"count":8,
			"max":[
				7.713739395141602,
				10.068721771240234,
				25.299707412719727
			],
			"min":[
				-4.336258888244629,
				-22.931278228759766,
				-27.30029296875
			],
			"type":"VEC3"
		},
		{
			"bufferView":10,
			"componentType":5126,
			"count":8,
			"type":"VEC3"
		},
		{
			"bufferView":11,
			"componentType":5123,
			"count":12,
			"type":"SCALAR"
		},
		{
			"bufferView":12,
			"componentType":5126,
			"count":180,
			"max":[
				22.2137393951416,
				25.668720245361328,
				15.089707374572754
			],
			"min":[
				-21.786258697509766,
				-5.683279037475586,
				-11.253292083740234
			],
			"type":"VEC3"
		},
		{
			"bufferView":13,
			"componentType":5126,
			"count":180,
			"type":"VEC3"
		},
		{
			"bufferView":14,
			"componentType":5123,
			"count":306,
			"type":"SCALAR"
		}
	],
	"bufferViews":[
		{
			"buffer":0,
			"byteLength":2304,
			"byteOffset":0,
			"target":34962
		},
		{
			"buffer":0,
			"byteLength":2304,
			"byteOffset":2304,
			"target":34962
		},
		{
			"buffer":0,
			"byteLength":1404,
			"byteOffset":4608,
			"target":34963
		},
		{
			"buffer":0,
			"byteLength":3744,
			"byteOffset":6012,
			"target":34962
		},
		{
			"buffer":0,
			"byteLength":3744,
			"byteOffset":9756,
			"target":34962
		},
		{
			"buffer":0,
			"byteLength":1032,
			"byteOffset":13500,
			"target":34963
		},
		{
			"buffer":0,
			"byteLength":3840,
			"byteOffset":14532,
			"target":34962
		},
		{
			"buffer":0,
			"byteLength":3840,
			"byteOffset":18372,
			"target":34962
		},
		{
			"buffer":0,
			"byteLength":960,
			"byteOffset":22212,
			"target":34963
		},
		{
			"buffer":0,
			"byteLength":96,
			"byteOffset":23172,
			"target":34962
		},
		{
			"buffer":0,
			"byteLength":96,
			"byteOffset":23268,
			"target":34962
		},
		{
			"buffer":0,
			"byteLength":24,
			"byteOffset":23364,
			"target":34963
		},
		{
			"buffer":0,
			"byteLength":2160,
			"byteOffset":23388,
			"target":34962
		},
		{
			"buffer":0,
			"byteLength":2160,
			"byteOffset":25548,
			"target":34962
		},
		{
			"buffer":0,
			"byteLength":612,
			"byteOffset":27708,
			"target":34963
		}
	],
	"buffers":[
		{
			"byteLength":28320,
			"uri":"data:application/octet-stream;base64,"
		}
	]
}
