{
	"asset":{
		"generator":"Khronos glTF Blender I/O v3.6.27",
		"version":"2.0"
	},
	"scene":0,
	"scenes":[
		{
			"name":"Scene",
			"nodes":[
				0,
				1,
				2,
				3,
				4,
				5,
				6,
				7,
				8,
				9,
				10,
				11
			]
		}
	],
	"nodes":[
		{
			"mesh":0,
			"name":"Psyche_Spacecraft_-_Bus",
			"scale":[
				0.009999999776482582,
				0.009999999776482582,
				0.009999999776482582
			]
		},
		{
			"mesh":1,
			"name":"Cylinder.005",
			"rotation":[
				-0.1637566238641739,
				0,
				0,
				0.9865007996559143
			],
			"scale":[
				0.002641559112817049,
				0.009916975162923336,
				0.0027609087992459536
			],
			"translation":[
				-0.14290015399456024,
				0.23930157721042633,
				-0.07840761542320251
			]
		},
		{
			"mesh":2,
			"name":"Cylinder.001",
			"rotation":[
				-0.1637566238641739,
				0,
				0,
				0.9865007996559143
			],
			"scale":[
				0.002641559112817049,
				0.009916975162923336,
				0.0027609087992459536
			],
			"translation":[
				0.12664005160331726,
				0.23930157721042633,
				-0.07840761542320251
			]
		},
		{
			"mesh":3,
			"name":"Cylinder.006",
			"scale":[
				0.003820867510512471,
				0.009916977025568485,
				0.00399034982547164
			],
			"translation":[
				0.12661467492580414,
				0.24167780578136444,
				-0.20650999248027802
			]
		},
		{
			"mesh":4,
			"name":"Cylinder.007",
			"rotation":[
				-0.05982444807887077,
				-0.4075641930103302,
				-0.11971942335367203,
				0.9033159613609314
			],
			"scale":[
				0.0026415600441396236,
				0.009916975162923336,
				0.002760909264907241
			],
			"translation":[
				0.021312838420271873,
				0.23112045228481293,
				-0.2022937387228012
			]
		},
		{
			"mesh":5,
			"name":"Cylinder.008",
			"rotation":[
				-0.12031140178442001,
				0.899196982383728,
				0.0586247444152832,
				0.41657301783561707
			],
			"scale":[
				0.0026415593456476927,
				0.009916975162923336,
				0.0027609087992459536
			],
			"translation":[
				-0.03730910271406174,
				0.23112045228481293,
				-0.20887820422649384
			]
		},
		{
			"mesh":6,
			"name":"Cylinder.009",
			"rotation":[
				-0.3480011224746704,
				-0.21756397187709808,
				-0.7526343464851379,
				0.5148811936378479
			],
			"scale":[
				0.0025744398590177298,
				0.0019089848501607776,
				0.0026623306330293417
			],
			"translation":[
				0.056642450392246246,
				0.3546730875968933,
				-0.20362557470798492
			]
		},
		{
			"mesh":7,
			"name":"Cylinder.010",
			"rotation":[
				-0.25289735198020935,
				-0.3232364356517792,
				-0.5318201780319214,
				0.7407621741294861
			],
			"scale":[
				0.0025712635833770037,
				0.001866564736701548,
				0.002659482415765524
			],
			"translation":[
				-0.14295104146003723,
				0.32809174060821533,
				-0.20598556101322174
			]
		},
		{
			"mesh":8,
			"name":"Cylinder.011",
			"rotation":[
				-0.27734389901161194,
				-0.3033711612224579,
				-0.6415646076202393,
				0.6476429104804993
			],
			"scale":[
				0.0020591330248862505,
				0.0030665716622024775,
				0.0024456162936985493
			],
			"translation":[
				-0.06856738775968552,
				0.35208219289779663,
				-0.20803114771842957
			]
		},
		{
			"mesh":9,
			"name":"Cylinder.012",
			"rotation":[
				0.2952251434326172,
				-0.5077518224716187,
				-0.7851493954658508,
				0.19639469683170319
			],
			"scale":[
				0.0020591323263943195,
				0.0030665695667266846,
				0.002445617225021124
			],
			"translation":[
				-0.14355969429016113,
				0.3289673924446106,
				-0.20513682067394257
			]
		},
		{
			"mesh":10,
			"name":"Cylinder.013",
			"rotation":[
				0.2996850311756134,
				-0.5088603496551514,
				-0.7834578156471252,
				0.1935042291879654
			],
			"scale":[
				0.002059132093563676,
				0.0030665709637105465,
				0.0024456160608679056
			],
			"translation":[
				0.12686443328857422,
				0.3289673924446106,
				-0.20456647872924805
			]
		},
		{
			"mesh":11,
			"name":"Cylinder.002",
			"scale":[
				0.003820867510512471,
				0.009916977025568485,
				0.00399034982547164
			],
			"translation":[
				-0.14362965524196625,
				0.24167780578136444,
				-0.20650999248027802
			]
		}
	],
	"materials":[
		{
			"alphaMode":"BLEND",
			"doubleSided":true,
			"name":"Material.003",
			"pbrMetallicRoughness":{
				"baseColorFactor":[
					0.3654601275920868,
					0.44797858595848083,
					0.44797858595848083,
					0.17391306161880493
				],
				"metallicFactor":0,
				"roughnessFactor":0.5
			}
		},
		{
			"alphaMode":"BLEND",
			"doubleSided":true,
			"name":"Material.004",
			"pbrMetallicRoughness":{
				"baseColorFactor":[
					0.023650629445910454,
					0.023650629445910454,
					0.023650629445910454,
					0.17399999499320984
				],
				"metallicFactor":0,
				"roughnessFactor":0.5
			}
		},
		{
			"alphaMode":"BLEND",
			"doubleSided":true,
			"name":"Material.005",
			"pbrMetallicRoughness":{
				"baseColorFactor":[
					0.800655722618103,
					0.19530650973320007,
					0.009058292023837566,
					0.17399999499320984
				],
				"metallicFactor":0,
				"roughnessFactor":0.5
			}
		},
		{
			"alphaMode":"BLEND",
			"doubleSided":true,
			"name":"Material.006",
			"pbrMetallicRoughness":{
				"baseColorFactor":[
					0.5277189016342163,
					0.5277189016342163,
					0.5277189016342163,
					0.17399999499320984
				],
				"metallicFactor":0,
				"roughnessFactor":0.5
			}
		},
		{
			"alphaMode":"BLEND",
			"doubleSided":true,
			"name":"Material.007",
			"pbrMetallicRoughness":{
				"baseColorFactor":[
					0.010021759197115898,
					0.010021759197115898,
					0.010021759197115898,
					0.17399999499320984
				],
				"metallicFactor":0,
				"roughnessFactor":0.5
			}
		},
		{
			"alphaMode":"BLEND",
			"doubleSided":true,
			"name":"Material.012",
			"pbrMetallicRoughness":{
				"baseColorFactor":[
					0.4109381437301636,
					0.4109381437301636,
					0.4109381437301636,
					0.17399999499320984
				],
				"metallicFactor":0.3913043439388275,
				"roughnessFactor":0.5
			}
		}
	],
	"meshes":[
		{
			"name":"Psyche_Spacecraft_-_Bus",
			"primitives":[
				{
					"attributes":{
						"POSITION":0,
						"NORMAL":1
					},
					"indices":2,
					"material":0
				},
				{
					"attributes":{
						"POSITION":3,
						"NORMAL":4
					},
					"indices":5,
					"material":1
				},
				{
					"attributes":{
						"POSITION":6,
						"NORMAL":7
					},
					"indices":8,
					"material":2
				},
				{
					"attributes":{
						"POSITION":9,
						"NORMAL":10
					},
					"indices":11,
					"material":3
				},
				{
					"attributes":{
						"POSITION":12,
						"NORMAL":13
					},
					"indices":14,
					"material":4
				}
			]
		},
		{
			"name":"Cylinder.005",
			"primitives":[
				{
					"attributes":{
						"POSITION":15,
						"NORMAL":16,
						"TEXCOORD_0":17
					},
					"indices":18,
					"material":5
				}
			]
		},
		{
			"name":"Cylinder.006",
			"primitives":[
				{
					"attributes":{
						"POSITION":19,
						"NORMAL":20,
						"TEXCOORD_0":21
					},
					"indices":18,
					"material":5
				}
			]
		},
		{
			"name":"Cylinder.007",
			"primitives":[
				{
					"attributes":{
						"POSITION":22,
						"NORMAL":23,
						"TEXCOORD_0":24
					},
					"indices":25,
					"material":5
				}
			]
		},
		{
			"name":"Cylinder.008",
			"primitives":[
				{
					"attributes":{
						"POSITION":26,
						"NORMAL":27,
						"TEXCOORD_0":28
					},
					"indices":18,
					"material":5
				}
			]
		},
		{
			"name":"Cylinder.009",
			"primitives":[
				{
					"attributes":{
						"POSITION":29,
						"NORMAL":30,
						"TEXCOORD_0":31
					},
					"indices":18,
					"material":5
				}
			]
		},
		{
			"name":"Cylinder.010",
			"primitives":[
				{
					"attributes":{
						"POSITION":32,
						"NORMAL":33,
						"TEXCOORD_0":34
					},
					"indices":18,
					"material":5
				}
			]
		},
		{
			"name":"Cylinder.011",
			"primitives":[
				{
					"attributes":{
						"POSITION":35,
						"NORMAL":36,
						"TEXCOORD_0":37
					},
					"indices":18,
					"material":5
				}
			]
		},
		{
			"name":"Cylinder.012",
			"primitives":[
				{
					"attributes":{
						"POSITION":38,
						"NORMAL":39,
						"TEXCOORD_0":40
					},
					"indices":18,
					"material":5
				}
			]
		},
		{
			"name":"Cylinder.013",
			"primitives":[
				{
					"attributes":{
						"POSITION":41,
						"NORMAL":42,
						"TEXCOORD_0":43
					},
					"indices":18,
					"material":5
				}
			]
		},
		{
			"name":"Cylinder.014",
			"primitives":[
				{
					"attributes":{
						"POSITION":44,
						"NORMAL":45,
						"TEXCOORD_0":46
					},
					"indices":18,
					"material":5
				}
			]
		},
		{
			"name":"Cylinder.001",
			"primitives":[
				{
					"attributes":{
						"POSITION":47,
						"NORMAL":48,
						"TEXCOORD_0":49
					},
					"indices":25,
					"material":5
				}
			]
		}
	],
	"accessors":[
		{
			"bufferView":0,
			"componentType":5126,
			"count":192,
			"max":[
				22.2137393951416,
				25.668720245361328,
				24.499706268310547
			],
			"min":[
				-21.786258697509766,
				-24.931278228759766,
				-24.30029296875
			],
			"type":"VEC3"
		},
		{
			"bufferView":1,
			"componentType":5126,
			"count":192,
			"type":"VEC3"
		},
		{
			"bufferView":2,
			"componentType":5123,
			"count":702,
			"type":"SCALAR"
		},
		{
			"bufferView":3,
			"componentType":5126,
			"count":312,
			"max":[
				25.01373863220215,
				21.568721771240234,
				25.299707412719727
			],
			"min":[
				-23.686260223388672,
				-22.931278228759766,
				-28.80029296875
			],
			"type":"VEC3"
		},
		{
			"bufferView":4,
			"componentType":5126,
			"count":312,
			"type":"VEC3"
		},
		{
			"bufferView":5,
			"componentType":5123,
			"count":516,
			"type":"SCALAR"
		},
		{
			"bufferView":6,
			"componentType":5126,
			"count":320,
			"max":[
				25.01373863220215,
				21.568721771240234,
				21.749706268310547
			],
			"min":[
				-23.686260223388672,
				-22.931278228759766,
				-22.750293731689453
			],
			"type":"VEC3"
		},
		{
			"bufferView":7,
			"componentType":5126,
			"count":320,
			"type":"VEC3"
		},
		{
			"bufferView":8,
			"componentType":5123,
			"count":480,
			"type":"SCALAR"
		},
		{
			"bufferView":9,
			"componentType":5126,
			"count":8,
			"max":[
				7.713739395141602,
				10.068721771240234,
				25.299707412719727
			],
			"min":[
				-4.336258888244629,
				-22.931278228759766,
				-27.30029296875
			],
			"type":"VEC3"
		},
		{
			"bufferView":10,
			"componentType":5126,
			"count":8,
			"type":"VEC3"
		},
		{
			"bufferView":11,
			"componentType":5123,
			"count":12,
			"type":"SCALAR"
		},
		{
			"bufferView":12,
			"componentType":5126,
			"count":180,
			"max":[
				22.2137393951416,
				25.668720245361328,
				15.089707374572754
			],
			"min":[
				-21.786258697509766,
				-5.683279037475586,
				-11.253292083740234
			],
			"type":"VEC3"
		},
		{
			"bufferView":13,
			"componentType":5126,
			"count":180,
			"type":"VEC3"
		},
		{
			"bufferView":14,
			"componentType":5123,
			"count":306,
			"type":"SCALAR"
		},
		{
			"bufferView":15,
			"componentType":5126,
			"count":399,
			"max":[
				1.0000301599502563,
				40.348304748535156,
				1
			],
			"min":[
				-1,
				-1,
				-1
			],
			"type":"VEC3"
		},
		{
			"bufferView":16,
			"componentType":5126,
			"count":399,
			"type":"VEC3"
		},
		{
			"bufferView":17,
			"componentType":5126,
			"count":399,
			"type":"VEC2"
		},
		{
			"bufferView":18,
			"componentType":5123,
			"count":948,
			"type":"SCALAR"
		},
		{
			"bufferView":19,
			"componentType":5126,
			"count":399,
			"max":[
				1.0000301599502563,
				40.348304748535156,
				1
			],
			"min":[
				-1,
				-1,
				-1
			],
			"type":"VEC3"
		},
		{
			"bufferView":20,
			"componentType":5126,
			"count":399,
			"type":"VEC3"
		},
		{
			"bufferView":21,
			"componentType":5126,
			"count":399,
			"type":"VEC2"
		},
		{
			"bufferView":22,
			"componentType":5126,
			"count":452,
			"max":[
				1.0000337362289429,
				41.343875885009766,
				1
			],
			"min":[
				-1,
				-1,
				-1
			],
			"type":"VEC3"
		},
		{
			"bufferView":23,
			"componentType":5126,
			"count":452,
			"type":"VEC3"
		},
		{
			"bufferView":24,
			"componentType":5126,
			"count":452,
			"type":"VEC2"
		},
		{
			"bufferView":25,
			"componentType":5123,
			"count":1140,
			"type":"SCALAR"
		},
		{
			"bufferView":26,
			"componentType":5126,
			"count":399,
			"max":[
				1.0000301599502563,
				40.348304748535156,
				1
			],
			"min":[
				-1,
				-1,
				-1
			],
			"type":"VEC3"
		},
		{
			"bufferView":27,
			"componentType":5126,
			"count":399,
			"type":"VEC3"
		},
		{
			"bufferView":28,
			"componentType":5126,
			"count":399,
			"type":"VEC2"
		},
		{
			"bufferView":29,
			"componentType":5126,
			"count":399,
			"max":[
				1.0000301599502563,
				40.348304748535156,
				1
			],
			"min":[
				-1,
				-1,
				-1
			],
			"type":"VEC3"
		},
		{
			"bufferView":30,
			"componentType":5126,
			"count":399,
			"type":"VEC3"
		},
		{
			"bufferView":31,
			"componentType":5126,
			"count":399,
			"type":"VEC2"
		},
		{
			"bufferView":32,
			"componentType":5126,
			"count":399,
			"max":[
				1.0000301599502563,
				40.348304748535156,
				1
			],
			"min":[
				-1,
				-1,
				-1
			],
			"type":"VEC3"
		},
		{
			"bufferView":33,
			"componentType":5126,
			"count":399,
			"type":"VEC3"
		},
		{
			"bufferView":34,
			"componentType":5126,
			"count":399,
			"type":"VEC2"
		},
		{
			"bufferView":35,
			"componentType":5126,
			"count":399,
			"max":[
				1.0000301599502563,
				40.348304748535156,
				1
			],
			"min":[
				-1,
				-1,
				-1
			],
			"type":"VEC3"
		},
		{
			"bufferView":36,
			"componentType":5126,
			"count":399,
			"type":"VEC3"
		},
		{
			"bufferView":37,
			"componentType":5126,
			"count":399,
			"type":"VEC2"
		},
		{
			"bufferView":38,
			"componentType":5126,
			"count":399,
			"max":[
				1.0000301599502563,
				40.348304748535156,
				1
			],
			"min":[
				-1,
				-1,
				-1
			],
			"type":"VEC3"
		},
		{
			"bufferView":39,
			"componentType":5126,
			"count":399,
			"type":"VEC3"
		},
		{
			"bufferView":40,
			"componentType":5126,
			"count":399,
			"type":"VEC2"
		},
		{
			"bufferView":41,
			"componentType":5126,
			"count":399,
			"max":[
				1.0000301599502563,
				40.348304748535156,
				1
			],
			"min":[
				-1,
				-1,
				-1
			],
			"type":"VEC3"
		},
		{
			"bufferView":42,
			"componentType":5126,
			"count":399,
			"type":"VEC3"
		},
		{
			"bufferView":43,
			"componentType":5126,
			"count":399,
			"type":"VEC2"
		},
		{
			"bufferView":44,
			"componentType":5126,
			"count":399,
			"max":[
				1.0000301599502563,
				40.348304748535156,
				1
			],
			"min":[
				-1,
				-1,
				-1
			],
			"type":"VEC3"
		},
		{
			"bufferView":45,
			"componentType":5126,
			"count":399,
			"type":"VEC3"
		},
		{
			"bufferView":46,
			"componentType":5126,
			"count":399,
			"type":"VEC2"
		},
		{
			"bufferView":47,
			"componentType":5126,
			"count":452,
			"max":[
				1.0000337362289429,
				41.343875885009766,
				1
			],
			"min":[
				-1,
				-1,
				-1
			],
			"type":"VEC3"
		},
		{
			"bufferView":48,
			"componentType":5126,
			"count":452,
			"type":"VEC3"
		},
		{
			"bufferView":49,
			"componentType":5126,
			"count":452,
			"type":"VEC2"
		}
	],
	"bufferViews":[
		{
			"buffer":0,
			"byteLength":2304,
			"byteOffset":0,
			"target":34962
		},
		{
			"buffer":0,
			"byteLength":2304,
			"byteOffset":2304,
			"target":34962
		},
		{
			"buffer":0,
			"byteLength":1404,
			"byteOffset":4608,
			"target":34963
		},
		{
			"buffer":0,
			"byteLength":3744,
			"byteOffset":6012,
			"target":34962
		},
		{
			"buffer":0,
			"byteLength":3744,
			"byteOffset":9756,
			"target":34962
		},
		{
			"buffer":0,
			"byteLength":1032,
			"byteOffset":13500,
			"target":34963
		},
		{
			"buffer":0,
			"byteLength":3840,
			"byteOffset":14532,
			"target":34962
		},
		{
			"buffer":0,
			"byteLength":3840,
			"byteOffset":18372,
			"target":34962
		},
		{
			"buffer":0,
			"byteLength":960,
			"byteOffset":22212,
			"target":34963
		},
		{
			"buffer":0,
			"byteLength":96,
			"byteOffset":23172,
			"target":34962
		},
		{
			"buffer":0,
			"byteLength":96,
			"byteOffset":23268,
			"target":34962
		},
		{
			"buffer":0,
			"byteLength":24,
			"byteOffset":23364,
			"target":34963
		},
		{
			"buffer":0,
			"byteLength":2160,
			"byteOffset":23388,
			"target":34962
		},
		{
			"buffer":0,
			"byteLength":2160,
			"byteOffset":25548,
			"target":34962
		},
		{
			"buffer":0,
			"byteLength":612,
			"byteOffset":27708,
			"target":34963
		},
		{
			"buffer":0,
			"byteLength":4788,
			"byteOffset":28320,
			"target":34962
		},
		{
			"buffer":0,
			"byteLength":4788,
			"byteOffset":33108,
			"target":34962
		},
		{
			"buffer":0,
			"byteLength":3192,
			"byteOffset":37896,
			"target":34962
		},
		{
			"buffer":0,
			"byteLength":1896,
			"byteOffset":41088,
			"target":34963
		},
		{
			"buffer":0,
			"byteLength":4788,
			"byteOffset":42984,
			"target":34962
		},
		{
			"buffer":0,
			"byteLength":4788,
			"byteOffset":47772,
			"target":34962
		},
		{
			"buffer":0,
			"byteLength":3192,
			"byteOffset":52560,
			"target":34962
		},
		{
			"buffer":0,
			"byteLength":5424,
			"byteOffset":55752,
			"target":34962
		},
		{
			"buffer":0,
			"byteLength":5424,
			"byteOffset":61176,
			"target":34962
		},
		{
			"buffer":0,
			"byteLength":3616,
			"byteOffset":66600,
			"target":34962
		},
		{
			"buffer":0,
			"byteLength":2280,
			"byteOffset":70216,
			"target":34963
		},
		{
			"buffer":0,
			"byteLength":4788,
			"byteOffset":72496,
			"target":34962
		},
		{
			"buffer":0,
			"byteLength":4788,
			"byteOffset":77284,
			"target":34962
		},
		{
			"buffer":0,
			"byteLength":3192,
			"byteOffset":82072,
			"target":34962
		},
		{
			"buffer":0,
			"byteLength":4788,
			"byteOffset":85264,
			"target":34962
		},
		{
			"buffer":0,
			"byteLength":4788,
			"byteOffset":90052,
			"target":34962
		},
		{
			"buffer":0,
			"byteLength":3192,
			"byteOffset":94840,
			"target":34962
		},
		{
			"buffer":0,
			"byteLength":4788,
			"byteOffset":98032,
			"target":34962
		},
		{
			"buffer":0,
			"byteLength":4788,
			"byteOffset":102820,
			"target":34962
		},
		{
			"buffer":0,
			"byteLength":3192,
			"byteOffset":107608,
			"target":34962
		},
		{
			"buffer":0,
			"byteLength":4788,
			"byteOffset":110800,
			"target":34962
		},
		{
			"buffer":0,
			"byteLength":4788,
			"byteOffset":115588,
			"target":34962
		},
		{
			"buffer":0,
			"byteLength":3192,
			"byteOffset":120376,
			"target":34962
		},
		{
			"buffer":0,
			"byteLength":4788,
			"byteOffset":123568,
			"target":34962
		},
		{
			"buffer":0,
			"byteLength":4788,
			"byteOffset":128356,
			"target":34962
		},
		{
			"buffer":0,
			"byteLength":3192,
			"byteOffset":133144,
			"target":34962
		},
		{
			"buffer":0,
			"byteLength":4788,
			"byteOffset":136336,
			"target":34962
		},
		{
			"buffer":0,
			"byteLength":4788,
			"byteOffset":141124,
			"target":34962
		},
		{
			"buffer":0,
			"byteLength":3192,
			"byteOffset":145912,
			"target":34962
		},
		{
			"buffer":0,
			"byteLength":4788,
			"byteOffset":149104,
			"target":34962
		},
		{
			"buffer":0,
			"byteLength":4788,
			"byteOffset":153892,
			"target":34962
		},
		{
			"buffer":0,
			"byteLength":3192,
			"byteOffset":158680,
			"target":34962
		},
		{
			"buffer":0,
			"byteLength":5424,
			"byteOffset":161872,
			"target":34962
		},
		{
			"buffer":0,
			"byteLength":5424,
			"byteOffset":167296,
			"target":34962
		},
		{
			"buffer":0,
			"byteLength":3616,
			"byteOffset":172720,
			"target":34962
		}
	],
	"buffers":[
		{
			"byteLength":176336,
			"uri":"data:application/octet-stream;base64,"
		}
	]
}
