{
	"asset":{
		"generator":"Khronos glTF Blender I/O v3.6.27",
		"version":"2.0"
	},
	"scene":0,
	"scenes":[
		{
			"name":"Scene",
			"nodes":[
				0,
				1,
				2,
				3,
				4,
				5,
				6,
				7,
				8,
				9,
				10,
				11
			]
		}
	],
	"nodes":[
		{
			"mesh":0,
			"name":"Psyche_Spacecraft_-_Bus",
			"scale":[
				0.16644439101219177,
				0.16644439101219177,
				0.16644439101219177
			],
			"translation":[
				10.700206756591797,
				42.638179779052734,
				-16.757648468017578
			]
		},
		{
			"mesh":1,
			"name":"Cylinder",
			"scale":[
				0.06412861496210098,
				0.16644439101219177,
				0.06697316467761993
			],
			"translation":[
				10.968117713928223,
				51.22655487060547,
				-20.809690475463867
			]
		},
		{
			"mesh":2,
			"name":"Cylinder.005",
			"rotation":[
				-0.1637566089630127,
				0,
				0,
				0.9865008592605591
			],
			"scale":[
				0.044335365295410156,
				0.16644439101219177,
				0.04633850231766701
			],
			"translation":[
				10.968544006347656,
				51.18667221069336,
				-18.659648895263672
			]
		},
		{
			"mesh":3,
			"name":"Cylinder.001",
			"rotation":[
				-0.1637566089630127,
				0,
				0,
				0.9865008592605591
			],
			"scale":[
				0.044335365295410156,
				0.16644439101219177,
				0.04633850231766701
			],
			"translation":[
				15.492449760437012,
				51.18667221069336,
				-18.659648895263672
			]
		},
		{
			"mesh":4,
			"name":"Cylinder.006",
			"scale":[
				0.06412861496210098,
				0.16644439101219177,
				0.06697316467761993
			],
			"translation":[
				15.492023468017578,
				51.22655487060547,
				-20.809690475463867
			]
		},
		{
			"mesh":5,
			"name":"Cylinder.007",
			"rotation":[
				-0.05982444807887077,
				-0.4075641930103302,
				-0.11971942335367203,
				0.9033159613609314
			],
			"scale":[
				0.044335369020700455,
				0.16644437611103058,
				0.04633850231766701
			],
			"translation":[
				13.72465991973877,
				51.04936218261719,
				-20.73892593383789
			]
		},
		{
			"mesh":6,
			"name":"Cylinder.008",
			"rotation":[
				-0.12031140178442001,
				0.899196982383728,
				0.058624736964702606,
				0.41657301783561707
			],
			"scale":[
				0.04433536157011986,
				0.16644437611103058,
				0.04633850231766701
			],
			"translation":[
				12.740761756896973,
				51.04936218261719,
				-20.84943962097168
			]
		},
		{
			"mesh":7,
			"name":"Cylinder.009",
			"rotation":[
				-0.3480011224746704,
				-0.21756397187709808,
				-0.7526343464851379,
				0.5148812532424927
			],
			"scale":[
				0.043208833783864975,
				0.03203997761011124,
				0.04468398913741112
			],
			"translation":[
				14.317625045776367,
				53.123043060302734,
				-20.761280059814453
			]
		},
		{
			"mesh":8,
			"name":"Cylinder.010",
			"rotation":[
				-0.25289735198020935,
				-0.3232364356517792,
				-0.5318201780319214,
				0.7407621741294861
			],
			"scale":[
				0.04315552860498428,
				0.031328022480010986,
				0.04463617503643036
			],
			"translation":[
				10.967690467834473,
				52.67690658569336,
				-20.80088996887207
			]
		},
		{
			"mesh":9,
			"name":"Cylinder.011",
			"rotation":[
				-0.27734389901161194,
				-0.3033711910247803,
				-0.6415646076202393,
				0.6476429104804993
			],
			"scale":[
				0.03456004709005356,
				0.05146867409348488,
				0.04104670137166977
			],
			"translation":[
				12.216129302978516,
				53.079559326171875,
				-20.835222244262695
			]
		},
		{
			"mesh":10,
			"name":"Cylinder.012",
			"rotation":[
				0.2952251434326172,
				-0.5077518224716187,
				-0.7851493954658508,
				0.19639469683170319
			],
			"scale":[
				0.03456003591418266,
				0.05146864801645279,
				0.04104670509696007
			],
			"translation":[
				10.957474708557129,
				52.69160461425781,
				-20.786643981933594
			]
		},
		{
			"mesh":11,
			"name":"Cylinder.013",
			"rotation":[
				0.2996850311756134,
				-0.5088603496551514,
				-0.7834578156471252,
				0.1935042291879654
			],
			"scale":[
				0.034560032188892365,
				0.05146866664290428,
				0.041046690195798874
			],
			"translation":[
				15.4962158203125,
				52.69160461425781,
				-20.777070999145508
			]
		}
	],
	"materials":[
		{
			"doubleSided":true,
			"name":"Material.003",
			"pbrMetallicRoughness":{
				"baseColorFactor":[
					0.3654601275920868,
					0.44797858595848083,
					0.44797858595848083,
					1
				],
				"metallicFactor":0,
				"roughnessFactor":0.5
			}
		},
		{
			"doubleSided":true,
			"name":"Material.004",
			"pbrMetallicRoughness":{
				"baseColorFactor":[
					0.023650629445910454,
					0.023650629445910454,
					0.023650629445910454,
					1
				],
				"metallicFactor":0,
				"roughnessFactor":0.5
			}
		},
		{
			"doubleSided":true,
			"name":"Material.005",
			"pbrMetallicRoughness":{
				"baseColorFactor":[
					0.800655722618103,
					0.19530650973320007,
					0.009058292023837566,
					1
				],
				"metallicFactor":0,
				"roughnessFactor":0.5
			}
		},
		{
			"doubleSided":true,
			"name":"Material.006",
			"pbrMetallicRoughness":{
				"baseColorFactor":[
					0.5277189016342163,
					0.5277189016342163,
					0.5277189016342163,
					1
				],
				"metallicFactor":0,
				"roughnessFactor":0.5
			}
		},
		{
			"doubleSided":true,
			"name":"Material.007",
			"pbrMetallicRoughness":{
				"baseColorFactor":[
					0.010021759197115898,
					0.010021759197115898,
					0.010021759197115898,
					1
				],
				"metallicFactor":0,
				"roughnessFactor":0.5
			}
		},
		{
			"doubleSided":true,
			"name":"Material.001",
			"pbrMetallicRoughness":{
				"baseColorFactor":[
					0.38437363505363464,
					0.38437363505363464,
					0.38437363505363464,
					1
				],
				"metallicFactor":0.6231883764266968,
				"roughnessFactor":0.5
			}
		}
	],
	"meshes":[
		{
			"name":"Psyche_Spacecraft_-_Bus",
			"primitives":[
				{
					"attributes":{
						"POSITION":0,
						"NORMAL":1
					},
					"indices":2,
					"material":0
				},
				{
					"attributes":{
						"POSITION":3,
						"NORMAL":4
					},
					"indices":5,
					"material":1
				},
				{
					"attributes":{
						"POSITION":6,
						"NORMAL":7
					},
					"indices":8,
					"material":2
				},
				{
					"attributes":{
						"POSITION":9,
						"NORMAL":10
					},
					"indices":11,
					"material":3
				},
				{
					"attributes":{
						"POSITION":12,
						"NORMAL":13
					},
					"indices":14,
					"material":4
				}
			]
		},
		{
			"name":"Cylinder",
			"primitives":[
				{
					"attributes":{
						"POSITION":15,
						"NORMAL":16,
						"TEXCOORD_0":17
					},
					"indices":18,
					"material":5
				}
			]
		},
		{
			"name":"Cylinder.005",
			"primitives":[
				{
					"attributes":{
						"POSITION":19,
						"NORMAL":20,
						"TEXCOORD_0":21
					},
					"indices":18
				}
			]
		},
		{
			"name":"Cylinder.006",
			"primitives":[
				{
					"attributes":{
						"POSITION":22,
						"NORMAL":23,
						"TEXCOORD_0":24
					},
					"indices":18
				}
			]
		},
		{
			"name":"Cylinder.007",
			"primitives":[
				{
					"attributes":{
						"POSITION":25,
						"NORMAL":26,
						"TEXCOORD_0":27
					},
					"indices":28
				}
			]
		},
		{
			"name":"Cylinder.008",
			"primitives":[
				{
					"attributes":{
						"POSITION":29,
						"NORMAL":30,
						"TEXCOORD_0":31
					},
					"indices":18
				}
			]
		},
		{
			"name":"Cylinder.009",
			"primitives":[
				{
					"attributes":{
						"POSITION":32,
						"NORMAL":33,
						"TEXCOORD_0":34
					},
					"indices":18
				}
			]
		},
		{
			"name":"Cylinder.010",
			"primitives":[
				{
					"attributes":{
						"POSITION":35,
						"NORMAL":36,
						"TEXCOORD_0":37
					},
					"indices":18
				}
			]
		},
		{
			"name":"Cylinder.011",
			"primitives":[
				{
					"attributes":{
						"POSITION":38,
						"NORMAL":39,
						"TEXCOORD_0":40
					},
					"indices":18
				}
			]
		},
		{
			"name":"Cylinder.012",
			"primitives":[
				{
					"attributes":{
						"POSITION":41,
						"NORMAL":42,
						"TEXCOORD_0":43
					},
					"indices":18
				}
			]
		},
		{
			"name":"Cylinder.013",
			"primitives":[
				{
					"attributes":{
						"POSITION":44,
						"NORMAL":45,
						"TEXCOORD_0":46
					},
					"indices":18
				}
			]
		},
		{
			"name":"Cylinder.014",
			"primitives":[
				{
					"attributes":{
						"POSITION":47,
						"NORMAL":48,
						"TEXCOORD_0":49
					},
					"indices":18
				}
			]
		}
	],
	"accessors":[
		{
			"bufferView":0,
			"componentType":5126,
			"count":192,
			"max":[
				36.500999450683594,
				50.599998474121094,
				18.299999237060547
			],
			"min":[
				-7.49899959564209,
				-8.157783857912823e-32,
				-30.5
			],
			"type":"VEC3"
		},
		{
			"bufferView":1,
			"componentType":5126,
			"count":192,
			"type":"VEC3"
		},
		{
			"bufferView":2,
			"componentType":5123,
			"count":702,
			"type":"SCALAR"
		},
		{
			"bufferView":3,
			"componentType":5126,
			"count":312,
			"max":[
				39.30099868774414,
				46.5,
				19.100000381469727
			],
			"min":[
				-9.398999214172363,
				2,
				-35
			],
			"type":"VEC3"
		},
		{
			"bufferView":4,
			"componentType":5126,
			"count":312,
			"type":"VEC3"
		},
		{
			"bufferView":5,
			"componentType":5123,
			"count":516,
			"type":"SCALAR"
		},
		{
			"bufferView":6,
			"componentType":5126,
			"count":320,
			"max":[
				39.30099868774414,
				46.5,
				15.550000190734863
			],
			"min":[
				-9.398999214172363,
				2,
				-28.950000762939453
			],
			"type":"VEC3"
		},
		{
			"bufferView":7,
			"componentType":5126,
			"count":320,
			"type":"VEC3"
		},
		{
			"bufferView":8,
			"componentType":5123,
			"count":480,
			"type":"SCALAR"
		},
		{
			"bufferView":9,
			"componentType":5126,
			"count":8,
			"max":[
				22.000999450683594,
				35,
				19.100000381469727
			],
			"min":[
				9.951001167297363,
				2,
				-33.5
			],
			"type":"VEC3"
		},
		{
			"bufferView":10,
			"componentType":5126,
			"count":8,
			"type":"VEC3"
		},
		{
			"bufferView":11,
			"componentType":5123,
			"count":12,
			"type":"SCALAR"
		},
		{
			"bufferView":12,
			"componentType":5126,
			"count":180,
			"max":[
				36.500999450683594,
				50.599998474121094,
				8.890000343322754
			],
			"min":[
				-7.49899959564209,
				19.24799919128418,
				-17.452999114990234
			],
			"type":"VEC3"
		},
		{
			"bufferView":13,
			"componentType":5126,
			"count":180,
			"type":"VEC3"
		},
		{
			"bufferView":14,
			"componentType":5123,
			"count":306,
			"type":"SCALAR"
		},
		{
			"bufferView":15,
			"componentType":5126,
			"count":399,
			"max":[
				1.0000301599502563,
				40.348304748535156,
				1
			],
			"min":[
				-1,
				-1,
				-1
			],
			"type":"VEC3"
		},
		{
			"bufferView":16,
			"componentType":5126,
			"count":399,
			"type":"VEC3"
		},
		{
			"bufferView":17,
			"componentType":5126,
			"count":399,
			"type":"VEC2"
		},
		{
			"bufferView":18,
			"componentType":5123,
			"count":948,
			"type":"SCALAR"
		},
		{
			"bufferView":19,
			"componentType":5126,
			"count":399,
			"max":[
				1.0000301599502563,
				40.348304748535156,
				1
			],
			"min":[
				-1,
				-1,
				-1
			],
			"type":"VEC3"
		},
		{
			"bufferView":20,
			"componentType":5126,
			"count":399,
			"type":"VEC3"
		},
		{
			"bufferView":21,
			"componentType":5126,
			"count":399,
			"type":"VEC2"
		},
		{
			"bufferView":22,
			"componentType":5126,
			"count":399,
			"max":[
				1.0000301599502563,
				40.348304748535156,
				1
			],
			"min":[
				-1,
				-1,
				-1
			],
			"type":"VEC3"
		},
		{
			"bufferView":23,
			"componentType":5126,
			"count":399,
			"type":"VEC3"
		},
		{
			"bufferView":24,
			"componentType":5126,
			"count":399,
			"type":"VEC2"
		},
		{
			"bufferView":25,
			"componentType":5126,
			"count":452,
			"max":[
				1.0000337362289429,
				41.343875885009766,
				1
			],
			"min":[
				-1,
				-1,
				-1
			],
			"type":"VEC3"
		},
		{
			"bufferView":26,
			"componentType":5126,
			"count":452,
			"type":"VEC3"
		},
		{
			"bufferView":27,
			"componentType":5126,
			"count":452,
			"type":"VEC2"
		},
		{
			"bufferView":28,
			"componentType":5123,
			"count":1140,
			"type":"SCALAR"
		},
		{
			"bufferView":29,
			"componentType":5126,
			"count":399,
			"max":[
				1.0000301599502563,
				40.348304748535156,
				1
			],
			"min":[
				-1,
				-1,
				-1
			],
			"type":"VEC3"
		},
		{
			"bufferView":30,
			"componentType":5126,
			"count":399,
			"type":"VEC3"
		},
		{
			"bufferView":31,
			"componentType":5126,
			"count":399,
			"type":"VEC2"
		},
		{
			"bufferView":32,
			"componentType":5126,
			"count":399,
			"max":[
				1.0000301599502563,
				40.348304748535156,
				1
			],
			"min":[
				-1,
				-1,
				-1
			],
			"type":"VEC3"
		},
		{
			"bufferView":33,
			"componentType":5126,
			"count":399,
			"type":"VEC3"
		},
		{
			"bufferView":34,
			"componentType":5126,
			"count":399,
			"type":"VEC2"
		},
		{
			"bufferView":35,
			"componentType":5126,
			"count":399,
			"max":[
				1.0000301599502563,
				40.348304748535156,
				1
			],
			"min":[
				-1,
				-1,
				-1
			],
			"type":"VEC3"
		},
		{
			"bufferView":36,
			"componentType":5126,
			"count":399,
			"type":"VEC3"
		},
		{
			"bufferView":37,
			"componentType":5126,
			"count":399,
			"type":"VEC2"
		},
		{
			"bufferView":38,
			"componentType":5126,
			"count":399,
			"max":[
				1.0000301599502563,
				40.348304748535156,
				1
			],
			"min":[
				-1,
				-1,
				-1
			],
			"type":"VEC3"
		},
		{
			"bufferView":39,
			"componentType":5126,
			"count":399,
			"type":"VEC3"
		},
		{
			"bufferView":40,
			"componentType":5126,
			"count":399,
			"type":"VEC2"
		},
		{
			"bufferView":41,
			"componentType":5126,
			"count":399,
			"max":[
				1.0000301599502563,
				40.348304748535156,
				1
			],
			"min":[
				-1,
				-1,
				-1
			],
			"type":"VEC3"
		},
		{
			"bufferView":42,
			"componentType":5126,
			"count":399,
			"type":"VEC3"
		},
		{
			"bufferView":43,
			"componentType":5126,
			"count":399,
			"type":"VEC2"
		},
		{
			"bufferView":44,
			"componentType":5126,
			"count":399,
			"max":[
				1.0000301599502563,
				40.348304748535156,
				1
			],
			"min":[
				-1,
				-1,
				-1
			],
			"type":"VEC3"
		},
		{
			"bufferView":45,
			"componentType":5126,
			"count":399,
			"type":"VEC3"
		},
		{
			"bufferView":46,
			"componentType":5126,
			"count":399,
			"type":"VEC2"
		},
		{
			"bufferView":47,
			"componentType":5126,
			"count":399,
			"max":[
				1.0000301599502563,
				40.348304748535156,
				1
			],
			"min":[
				-1,
				-1,
				-1
			],
			"type":"VEC3"
		},
		{
			"bufferView":48,
			"componentType":5126,
			"count":399,
			"type":"VEC3"
		},
		{
			"bufferView":49,
			"componentType":5126,
			"count":399,
			"type":"VEC2"
		}
	],
	"bufferViews":[
		{
			"buffer":0,
			"byteLength":2304,
			"byteOffset":0,
			"target":34962
		},
		{
			"buffer":0,
			"byteLength":2304,
			"byteOffset":2304,
			"target":34962
		},
		{
			"buffer":0,
			"byteLength":1404,
			"byteOffset":4608,
			"target":34963
		},
		{
			"buffer":0,
			"byteLength":3744,
			"byteOffset":6012,
			"target":34962
		},
		{
			"buffer":0,
			"byteLength":3744,
			"byteOffset":9756,
			"target":34962
		},
		{
			"buffer":0,
			"byteLength":1032,
			"byteOffset":13500,
			"target":34963
		},
		{
			"buffer":0,
			"byteLength":3840,
			"byteOffset":14532,
			"target":34962
		},
		{
			"buffer":0,
			"byteLength":3840,
			"byteOffset":18372,
			"target":34962
		},
		{
			"buffer":0,
			"byteLength":960,
			"byteOffset":22212,
			"target":34963
		},
		{
			"buffer":0,
			"byteLength":96,
			"byteOffset":23172,
			"target":34962
		},
		{
			"buffer":0,
			"byteLength":96,
			"byteOffset":23268,
			"target":34962
		},
		{
			"buffer":0,
			"byteLength":24,
			"byteOffset":23364,
			"target":34963
		},
		{
			"buffer":0,
			"byteLength":2160,
			"byteOffset":23388,
			"target":34962
		},
		{
			"buffer":0,
			"byteLength":2160,
			"byteOffset":25548,
			"target":34962
		},
		{
			"buffer":0,
			"byteLength":612,
			"byteOffset":27708,
			"target":34963
		},
		{
			"buffer":0,
			"byteLength":4788,
			"byteOffset":28320,
			"target":34962
		},
		{
			"buffer":0,
			"byteLength":4788,
			"byteOffset":33108,
			"target":34962
		},
		{
			"buffer":0,
			"byteLength":3192,
			"byteOffset":37896,
			"target":34962
		},
		{
			"buffer":0,
			"byteLength":1896,
			"byteOffset":41088,
			"target":34963
		},
		{
			"buffer":0,
			"byteLength":4788,
			"byteOffset":42984,
			"target":34962
		},
		{
			"buffer":0,
			"byteLength":4788,
			"byteOffset":47772,
			"target":34962
		},
		{
			"buffer":0,
			"byteLength":3192,
			"byteOffset":52560,
			"target":34962
		},
		{
			"buffer":0,
			"byteLength":4788,
			"byteOffset":55752,
			"target":34962
		},
		{
			"buffer":0,
			"byteLength":4788,
			"byteOffset":60540,
			"target":34962
		},
		{
			"buffer":0,
			"byteLength":3192,
			"byteOffset":65328,
			"target":34962
		},
		{
			"buffer":0,
			"byteLength":5424,
			"byteOffset":68520,
			"target":34962
		},
		{
			"buffer":0,
			"byteLength":5424,
			"byteOffset":73944,
			"target":34962
		},
		{
			"buffer":0,
			"byteLength":3616,
			"byteOffset":79368,
			"target":34962
		},
		{
			"buffer":0,
			"byteLength":2280,
			"byteOffset":82984,
			"target":34963
		},
		{
			"buffer":0,
			"byteLength":4788,
			"byteOffset":85264,
			"target":34962
		},
		{
			"buffer":0,
			"byteLength":4788,
			"byteOffset":90052,
			"target":34962
		},
		{
			"buffer":0,
			"byteLength":3192,
			"byteOffset":94840,
			"target":34962
		},
		{
			"buffer":0,
			"byteLength":4788,
			"byteOffset":98032,
			"target":34962
		},
		{
			"buffer":0,
			"byteLength":4788,
			"byteOffset":102820,
			"target":34962
		},
		{
			"buffer":0,
			"byteLength":3192,
			"byteOffset":107608,
			"target":34962
		},
		{
			"buffer":0,
			"byteLength":4788,
			"byteOffset":110800,
			"target":34962
		},
		{
			"buffer":0,
			"byteLength":4788,
			"byteOffset":115588,
			"target":34962
		},
		{
			"buffer":0,
			"byteLength":3192,
			"byteOffset":120376,
			"target":34962
		},
		{
			"buffer":0,
			"byteLength":4788,
			"byteOffset":123568,
			"target":34962
		},
		{
			"buffer":0,
			"byteLength":4788,
			"byteOffset":128356,
			"target":34962
		},
		{
			"buffer":0,
			"byteLength":3192,
			"byteOffset":133144,
			"target":34962
		},
		{
			"buffer":0,
			"byteLength":4788,
			"byteOffset":136336,
			"target":34962
		},
		{
			"buffer":0,
			"byteLength":4788,
			"byteOffset":141124,
			"target":34962
		},
		{
			"buffer":0,
			"byteLength":3192,
			"byteOffset":145912,
			"target":34962
		},
		{
			"buffer":0,
			"byteLength":4788,
			"byteOffset":149104,
			"target":34962
		},
		{
			"buffer":0,
			"byteLength":4788,
			"byteOffset":153892,
			"target":34962
		},
		{
			"buffer":0,
			"byteLength":3192,
			"byteOffset":158680,
			"target":34962
		},
		{
			"buffer":0,
			"byteLength":4788,
			"byteOffset":161872,
			"target":34962
		},
		{
			"buffer":0,
			"byteLength":4788,
			"byteOffset":166660,
			"target":34962
		},
		{
			"buffer":0,
			"byteLength":3192,
			"byteOffset":171448,
			"target":34962
		}
	],
	"buffers":[
		{
			"byteLength":174640,
			"uri":"data:application/octet-stream;base64,"
		}
	]
}
