{
	"asset":{
		"generator":"Khronos glTF Blender I/O v3.6.27",
		"version":"2.0"
	},
	"scene":0,
	"scenes":[
		{
			"name":"Scene",
			"nodes":[
				0,
				1,
				2,
				3,
				4,
				5
			]
		}
	],
	"nodes":[
		{
			"mesh":0,
			"name":"Cube",
			"rotation":[
				0,
				-0.005850092973560095,
				0,
				0.9999828934669495
			],
			"scale":[
				0.014832762070000172,
				0.024194663390517235,
				0.0005735571030527353
			],
			"translation":[
				1.6167759895324707e-05,
				0.008054912090301514,
				-0.018665723502635956
			]
		},
		{
			"mesh":1,
			"name":"Cylinder.003",
			"rotation":[
				0,
				-0.005850077606737614,
				0,
				0.9999828934669495
			],
			"scale":[
				0.007395446300506592,
				0.007395446300506592,
				0.007395446300506592
			],
			"translation":[
				8.089840412139893e-05,
				0.0008817315101623535,
				-0.00807064026594162
			]
		},
		{
			"mesh":2,
			"name":"Cylinder.004",
			"rotation":[
				0.7117456197738647,
				-0.004109248518943787,
				0.004163846373558044,
				0.7024129629135132
			],
			"scale":[
				0.0015457853442057967,
				0.0015457855770364404,
				0.0015457860426977277
			],
			"translation":[
				-0.004262849688529968,
				0.025888264179229736,
				-0.015826396644115448
			]
		},
		{
			"mesh":3,
			"name":"BezierCurve.003",
			"rotation":[
				0,
				-0.005850091576576233,
				0,
				0.9999828934669495
			],
			"scale":[
				0.0053765843622386456,
				0.005376583896577358,
				0.0053765843622386456
			],
			"translation":[
				0.000339701771736145,
				0.016019165515899658,
				-0.00816839188337326
			]
		},
		{
			"mesh":4,
			"name":"BezierCurve.004",
			"rotation":[
				0.7065426111221313,
				-0.7067489624023438,
				0.029201699420809746,
				0.02122885175049305
			],
			"scale":[
				0.00537658529356122,
				0.005376582499593496,
				0.005376581102609634
			],
			"translation":[
				-0.004040643572807312,
				0.0206642746925354,
				-0.012039832770824432
			]
		},
		{
			"mesh":5,
			"name":"Cylinder.014",
			"rotation":[
				0,
				-0.005850077606737614,
				0,
				0.9999828934669495
			],
			"scale":[
				0.007395446300506592,
				0.007395446300506592,
				0.007395446300506592
			],
			"translation":[
				8.089840412139893e-05,
				0.0008817315101623535,
				-0.00807064026594162
			]
		}
	],
	"materials":[
		{
			"doubleSided":true,
			"name":"Material.013",
			"pbrMetallicRoughness":{
				"baseColorFactor":[
					0.39157259464263916,
					0.3712378442287445,
					0.33245155215263367,
					1
				],
				"metallicFactor":0,
				"roughnessFactor":0.5
			}
		},
		{
			"doubleSided":true,
			"name":"Material.024",
			"pbrMetallicRoughness":{
				"baseColorFactor":[
					0.3588392436504364,
					0.18009766936302185,
					0.04002230241894722,
					1
				],
				"metallicFactor":0,
				"roughnessFactor":0.5
			}
		},
		{
			"doubleSided":true,
			"name":"Material.025",
			"pbrMetallicRoughness":{
				"baseColorFactor":[
					0.14239995181560516,
					0.14239995181560516,
					0.14239995181560516,
					1
				],
				"metallicFactor":0,
				"roughnessFactor":0.5
			}
		},
		{
			"doubleSided":true,
			"name":"Material.026",
			"pbrMetallicRoughness":{
				"baseColorFactor":[
					0.2079593390226364,
					0.22238457202911377,
					0.2529425323009491,
					1
				],
				"metallicFactor":0,
				"roughnessFactor":0.5
			}
		},
		{
			"doubleSided":true,
			"name":"Material.027",
			"pbrMetallicRoughness":{
				"baseColorFactor":[
					0.09462536871433258,
					0.09462536871433258,
					0.09462536871433258,
					1
				],
				"metallicFactor":0,
				"roughnessFactor":0.5
			}
		},
		{
			"doubleSided":true,
			"name":"Material.028",
			"pbrMetallicRoughness":{
				"baseColorFactor":[
					0.43854284286499023,
					0.3212721645832062,
					0.11881357431411743,
					1
				],
				"metallicFactor":0,
				"roughnessFactor":0.5
			}
		},
		{
			"doubleSided":true,
			"name":"Material.029",
			"pbrMetallicRoughness":{
				"baseColorFactor":[
					0.5070686936378479,
					0.5070686936378479,
					0.5070686936378479,
					1
				],
				"metallicFactor":0.4202898442745209,
				"roughnessFactor":0.5
			}
		},
		{
			"doubleSided":true,
			"name":"Material.030",
			"pbrMetallicRoughness":{
				"baseColorFactor":[
					0.8000000715255737,
					0.4984036684036255,
					0.08150282502174377,
					1
				],
				"metallicFactor":0,
				"roughnessFactor":0.5
			}
		},
		{
			"doubleSided":true,
			"name":"Material.031",
			"pbrMetallicRoughness":{
				"baseColorFactor":[
					0.7230422496795654,
					0.7230422496795654,
					0.7230422496795654,
					1
				],
				"metallicFactor":0.3188405930995941,
				"roughnessFactor":0.5
			}
		},
		{
			"doubleSided":true,
			"name":"Material.032",
			"pbrMetallicRoughness":{
				"baseColorFactor":[
					0.16264133155345917,
					0.16264133155345917,
					0.16264133155345917,
					1
				],
				"metallicFactor":0,
				"roughnessFactor":0.5
			}
		},
		{
			"doubleSided":true,
			"name":"Material.033",
			"pbrMetallicRoughness":{
				"baseColorFactor":[
					0.9113931655883789,
					0.40359097719192505,
					0.06296830624341965,
					1
				],
				"metallicFactor":0,
				"roughnessFactor":0.5
			}
		},
		{
			"doubleSided":true,
			"name":"Material.034",
			"pbrMetallicRoughness":{
				"baseColorFactor":[
					0.486896812915802,
					0.486896812915802,
					0.486896812915802,
					1
				],
				"metallicFactor":0.8550724387168884,
				"roughnessFactor":0.5
			}
		},
		{
			"doubleSided":true,
			"name":"Material.035",
			"pbrMetallicRoughness":{
				"baseColorFactor":[
					0.5814630389213562,
					0.5814630389213562,
					0.5814630389213562,
					1
				],
				"metallicFactor":0.8985507488250732,
				"roughnessFactor":0.5
			}
		}
	],
	"meshes":[
		{
			"name":"Cube",
			"primitives":[
				{
					"attributes":{
						"POSITION":0,
						"NORMAL":1,
						"TEXCOORD_0":2
					},
					"indices":3,
					"material":0
				},
				{
					"attributes":{
						"POSITION":4,
						"NORMAL":5,
						"TEXCOORD_0":6
					},
					"indices":7,
					"material":1
				},
				{
					"attributes":{
						"POSITION":8,
						"NORMAL":9,
						"TEXCOORD_0":10
					},
					"indices":11,
					"material":2
				},
				{
					"attributes":{
						"POSITION":12,
						"NORMAL":13,
						"TEXCOORD_0":14
					},
					"indices":15,
					"material":3
				},
				{
					"attributes":{
						"POSITION":16,
						"NORMAL":17,
						"TEXCOORD_0":18
					},
					"indices":19,
					"material":4
				},
				{
					"attributes":{
						"POSITION":20,
						"NORMAL":21,
						"TEXCOORD_0":22
					},
					"indices":23,
					"material":5
				}
			]
		},
		{
			"name":"Cylinder.002",
			"primitives":[
				{
					"attributes":{
						"POSITION":24,
						"NORMAL":25,
						"TEXCOORD_0":26
					},
					"indices":27,
					"material":6
				},
				{
					"attributes":{
						"POSITION":28,
						"NORMAL":29,
						"TEXCOORD_0":30
					},
					"indices":31,
					"material":7
				},
				{
					"attributes":{
						"POSITION":32,
						"NORMAL":33,
						"TEXCOORD_0":34
					},
					"indices":35,
					"material":8
				},
				{
					"attributes":{
						"POSITION":36,
						"NORMAL":37,
						"TEXCOORD_0":38
					},
					"indices":39,
					"material":9
				}
			]
		},
		{
			"name":"Cylinder.003",
			"primitives":[
				{
					"attributes":{
						"POSITION":40,
						"NORMAL":41,
						"TEXCOORD_0":42
					},
					"indices":43,
					"material":10
				}
			]
		},
		{
			"name":"BezierCurve",
			"primitives":[
				{
					"attributes":{
						"POSITION":44,
						"NORMAL":45,
						"TEXCOORD_0":46
					},
					"indices":47,
					"material":11
				}
			]
		},
		{
			"name":"BezierCurve.001",
			"primitives":[
				{
					"attributes":{
						"POSITION":48,
						"NORMAL":49,
						"TEXCOORD_0":50
					},
					"indices":51,
					"material":12
				}
			]
		},
		{
			"name":"Cylinder.004",
			"primitives":[
				{
					"attributes":{
						"POSITION":52,
						"NORMAL":53,
						"TEXCOORD_0":54
					},
					"indices":55,
					"material":6
				}
			]
		}
	],
	"accessors":[
		{
			"bufferView":0,
			"componentType":5126,
			"count":681,
			"max":[
				1.3753975629806519,
				1,
				5.096224784851074
			],
			"min":[
				-1.4275288581848145,
				-1,
				-12.53978443145752
			],
			"type":"VEC3"
		},
		{
			"bufferView":1,
			"componentType":5126,
			"count":681,
			"type":"VEC3"
		},
		{
			"bufferView":2,
			"componentType":5126,
			"count":681,
			"type":"VEC2"
		},
		{
			"bufferView":3,
			"componentType":5123,
			"count":2652,
			"type":"SCALAR"
		},
		{
			"bufferView":4,
			"componentType":5126,
			"count":26,
			"max":[
				0,
				0.375,
				14.704318046569824
			],
			"min":[
				-0.25,
				0.125,
				1
			],
			"type":"VEC3"
		},
		{
			"bufferView":5,
			"componentType":5126,
			"count":26,
			"type":"VEC3"
		},
		{
			"bufferView":6,
			"componentType":5126,
			"count":26,
			"type":"VEC2"
		},
		{
			"bufferView":7,
			"componentType":5123,
			"count":48,
			"type":"SCALAR"
		},
		{
			"bufferView":8,
			"componentType":5126,
			"count":148,
			"max":[
				0.5,
				0.125,
				5.723025798797607
			],
			"min":[
				-0.5,
				-1,
				1
			],
			"type":"VEC3"
		},
		{
			"bufferView":9,
			"componentType":5126,
			"count":148,
			"type":"VEC3"
		},
		{
			"bufferView":10,
			"componentType":5126,
			"count":148,
			"type":"VEC2"
		},
		{
			"bufferView":11,
			"componentType":5123,
			"count":450,
			"type":"SCALAR"
		},
		{
			"bufferView":12,
			"componentType":5126,
			"count":92,
			"max":[
				0.7432481646537781,
				1,
				2.690443515777588
			],
			"min":[
				-0.75,
				0.5,
				1
			],
			"type":"VEC3"
		},
		{
			"bufferView":13,
			"componentType":5126,
			"count":92,
			"type":"VEC3"
		},
		{
			"bufferView":14,
			"componentType":5126,
			"count":92,
			"type":"VEC2"
		},
		{
			"bufferView":15,
			"componentType":5123,
			"count":276,
			"type":"SCALAR"
		},
		{
			"bufferView":16,
			"componentType":5126,
			"count":33,
			"max":[
				0.7432481646537781,
				0.5,
				2.6303248405456543
			],
			"min":[
				0.25,
				0.25,
				1
			],
			"type":"VEC3"
		},
		{
			"bufferView":17,
			"componentType":5126,
			"count":33,
			"type":"VEC3"
		},
		{
			"bufferView":18,
			"componentType":5126,
			"count":33,
			"type":"VEC2"
		},
		{
			"bufferView":19,
			"componentType":5123,
			"count":72,
			"type":"SCALAR"
		},
		{
			"bufferView":20,
			"componentType":5126,
			"count":78,
			"max":[
				0.6838260293006897,
				0.9405778646469116,
				5.433585166931152
			],
			"min":[
				0.5594221353530884,
				0.6844221353530884,
				2.690443515777588
			],
			"type":"VEC3"
		},
		{
			"bufferView":21,
			"componentType":5126,
			"count":78,
			"type":"VEC3"
		},
		{
			"bufferView":22,
			"componentType":5126,
			"count":78,
			"type":"VEC2"
		},
		{
			"bufferView":23,
			"componentType":5123,
			"count":162,
			"type":"SCALAR"
		},
		{
			"bufferView":24,
			"componentType":5126,
			"count":446,
			"max":[
				1.1423462629318237,
				1.2810192108154297,
				1
			],
			"min":[
				-1.1423462629318237,
				-1.4283909797668457,
				-1
			],
			"type":"VEC3"
		},
		{
			"bufferView":25,
			"componentType":5126,
			"count":446,
			"type":"VEC3"
		},
		{
			"bufferView":26,
			"componentType":5126,
			"count":446,
			"type":"VEC2"
		},
		{
			"bufferView":27,
			"componentType":5123,
			"count":1176,
			"type":"SCALAR"
		},
		{
			"bufferView":28,
			"componentType":5126,
			"count":781,
			"max":[
				0.720338761806488,
				1.2810192108154297,
				0.5790826082229614
			],
			"min":[
				-0.720338761806488,
				-2.650810956954956,
				-0.5790825486183167
			],
			"type":"VEC3"
		},
		{
			"bufferView":29,
			"componentType":5126,
			"count":781,
			"type":"VEC3"
		},
		{
			"bufferView":30,
			"componentType":5126,
			"count":781,
			"type":"VEC2"
		},
		{
			"bufferView":31,
			"componentType":5123,
			"count":1536,
			"type":"SCALAR"
		},
		{
			"bufferView":32,
			"componentType":5126,
			"count":266,
			"max":[
				0.9961133599281311,
				1.8774948120117188,
				0.21512025594711304
			],
			"min":[
				-1.0492973327636719,
				0.938906192779541,
				-0.26824426651000977
			],
			"type":"VEC3"
		},
		{
			"bufferView":33,
			"componentType":5126,
			"count":266,
			"type":"VEC3"
		},
		{
			"bufferView":34,
			"componentType":5126,
			"count":266,
			"type":"VEC2"
		},
		{
			"bufferView":35,
			"componentType":5123,
			"count":624,
			"type":"SCALAR"
		},
		{
			"bufferView":36,
			"componentType":5126,
			"count":140,
			"max":[
				0.6731504201889038,
				-1.2346280813217163,
				0.6731504201889038
			],
			"min":[
				-0.6731504201889038,
				-1.4283909797668457,
				-0.6731504201889038
			],
			"type":"VEC3"
		},
		{
			"bufferView":37,
			"componentType":5126,
			"count":140,
			"type":"VEC3"
		},
		{
			"bufferView":38,
			"componentType":5126,
			"count":140,
			"type":"VEC2"
		},
		{
			"bufferView":39,
			"componentType":5123,
			"count":228,
			"type":"SCALAR"
		},
		{
			"bufferView":40,
			"componentType":5126,
			"count":576,
			"max":[
				1,
				2.055952310562134,
				1
			],
			"min":[
				-1,
				-1,
				-1
			],
			"type":"VEC3"
		},
		{
			"bufferView":41,
			"componentType":5126,
			"count":576,
			"type":"VEC3"
		},
		{
			"bufferView":42,
			"componentType":5126,
			"count":576,
			"type":"VEC2"
		},
		{
			"bufferView":43,
			"componentType":5123,
			"count":1140,
			"type":"SCALAR"
		},
		{
			"bufferView":44,
			"componentType":5126,
			"count":897,
			"max":[
				1.1321206092834473,
				0.3000209331512451,
				0.022216327488422394
			],
			"min":[
				-1.2678523063659668,
				-0.29955804347991943,
				-0.1492478847503662
			],
			"type":"VEC3"
		},
		{
			"bufferView":45,
			"componentType":5126,
			"count":897,
			"type":"VEC3"
		},
		{
			"bufferView":46,
			"componentType":5126,
			"count":897,
			"type":"VEC2"
		},
		{
			"bufferView":47,
			"componentType":5123,
			"count":4896,
			"type":"SCALAR"
		},
		{
			"bufferView":48,
			"componentType":5126,
			"count":793,
			"max":[
				8.288325309753418,
				0.1411813497543335,
				0.08723628520965576
			],
			"min":[
				-1.0610522031784058,
				-3.300588846206665,
				-0.4206860065460205
			],
			"type":"VEC3"
		},
		{
			"bufferView":49,
			"componentType":5126,
			"count":793,
			"type":"VEC3"
		},
		{
			"bufferView":50,
			"componentType":5126,
			"count":793,
			"type":"VEC2"
		},
		{
			"bufferView":51,
			"componentType":5123,
			"count":4320,
			"type":"SCALAR"
		},
		{
			"bufferView":52,
			"componentType":5126,
			"count":1488,
			"max":[
				1.1423462629318237,
				0.938906192779541,
				1
			],
			"min":[
				-1.1423462629318237,
				-1,
				-1
			],
			"type":"VEC3"
		},
		{
			"bufferView":53,
			"componentType":5126,
			"count":1488,
			"type":"VEC3"
		},
		{
			"bufferView":54,
			"componentType":5126,
			"count":1488,
			"type":"VEC2"
		},
		{
			"bufferView":55,
			"componentType":5123,
			"count":4104,
			"type":"SCALAR"
		}
	],
	"bufferViews":[
		{
			"buffer":0,
			"byteLength":8172,
			"byteOffset":0,
			"target":34962
		},
		{
			"buffer":0,
			"byteLength":8172,
			"byteOffset":8172,
			"target":34962
		},
		{
			"buffer":0,
			"byteLength":5448,
			"byteOffset":16344,
			"target":34962
		},
		{
			"buffer":0,
			"byteLength":5304,
			"byteOffset":21792,
			"target":34963
		},
		{
			"buffer":0,
			"byteLength":312,
			"byteOffset":27096,
			"target":34962
		},
		{
			"buffer":0,
			"byteLength":312,
			"byteOffset":27408,
			"target":34962
		},
		{
			"buffer":0,
			"byteLength":208,
			"byteOffset":27720,
			"target":34962
		},
		{
			"buffer":0,
			"byteLength":96,
			"byteOffset":27928,
			"target":34963
		},
		{
			"buffer":0,
			"byteLength":1776,
			"byteOffset":28024,
			"target":34962
		},
		{
			"buffer":0,
			"byteLength":1776,
			"byteOffset":29800,
			"target":34962
		},
		{
			"buffer":0,
			"byteLength":1184,
			"byteOffset":31576,
			"target":34962
		},
		{
			"buffer":0,
			"byteLength":900,
			"byteOffset":32760,
			"target":34963
		},
		{
			"buffer":0,
			"byteLength":1104,
			"byteOffset":33660,
			"target":34962
		},
		{
			"buffer":0,
			"byteLength":1104,
			"byteOffset":34764,
			"target":34962
		},
		{
			"buffer":0,
			"byteLength":736,
			"byteOffset":35868,
			"target":34962
		},
		{
			"buffer":0,
			"byteLength":552,
			"byteOffset":36604,
			"target":34963
		},
		{
			"buffer":0,
			"byteLength":396,
			"byteOffset":37156,
			"target":34962
		},
		{
			"buffer":0,
			"byteLength":396,
			"byteOffset":37552,
			"target":34962
		},
		{
			"buffer":0,
			"byteLength":264,
			"byteOffset":37948,
			"target":34962
		},
		{
			"buffer":0,
			"byteLength":144,
			"byteOffset":38212,
			"target":34963
		},
		{
			"buffer":0,
			"byteLength":936,
			"byteOffset":38356,
			"target":34962
		},
		{
			"buffer":0,
			"byteLength":936,
			"byteOffset":39292,
			"target":34962
		},
		{
			"buffer":0,
			"byteLength":624,
			"byteOffset":40228,
			"target":34962
		},
		{
			"buffer":0,
			"byteLength":324,
			"byteOffset":40852,
			"target":34963
		},
		{
			"buffer":0,
			"byteLength":5352,
			"byteOffset":41176,
			"target":34962
		},
		{
			"buffer":0,
			"byteLength":5352,
			"byteOffset":46528,
			"target":34962
		},
		{
			"buffer":0,
			"byteLength":3568,
			"byteOffset":51880,
			"target":34962
		},
		{
			"buffer":0,
			"byteLength":2352,
			"byteOffset":55448,
			"target":34963
		},
		{
			"buffer":0,
			"byteLength":9372,
			"byteOffset":57800,
			"target":34962
		},
		{
			"buffer":0,
			"byteLength":9372,
			"byteOffset":67172,
			"target":34962
		},
		{
			"buffer":0,
			"byteLength":6248,
			"byteOffset":76544,
			"target":34962
		},
		{
			"buffer":0,
			"byteLength":3072,
			"byteOffset":82792,
			"target":34963
		},
		{
			"buffer":0,
			"byteLength":3192,
			"byteOffset":85864,
			"target":34962
		},
		{
			"buffer":0,
			"byteLength":3192,
			"byteOffset":89056,
			"target":34962
		},
		{
			"buffer":0,
			"byteLength":2128,
			"byteOffset":92248,
			"target":34962
		},
		{
			"buffer":0,
			"byteLength":1248,
			"byteOffset":94376,
			"target":34963
		},
		{
			"buffer":0,
			"byteLength":1680,
			"byteOffset":95624,
			"target":34962
		},
		{
			"buffer":0,
			"byteLength":1680,
			"byteOffset":97304,
			"target":34962
		},
		{
			"buffer":0,
			"byteLength":1120,
			"byteOffset":98984,
			"target":34962
		},
		{
			"buffer":0,
			"byteLength":456,
			"byteOffset":100104,
			"target":34963
		},
		{
			"buffer":0,
			"byteLength":6912,
			"byteOffset":100560,
			"target":34962
		},
		{
			"buffer":0,
			"byteLength":6912,
			"byteOffset":107472,
			"target":34962
		},
		{
			"buffer":0,
			"byteLength":4608,
			"byteOffset":114384,
			"target":34962
		},
		{
			"buffer":0,
			"byteLength":2280,
			"byteOffset":118992,
			"target":34963
		},
		{
			"buffer":0,
			"byteLength":10764,
			"byteOffset":121272,
			"target":34962
		},
		{
			"buffer":0,
			"byteLength":10764,
			"byteOffset":132036,
			"target":34962
		},
		{
			"buffer":0,
			"byteLength":7176,
			"byteOffset":142800,
			"target":34962
		},
		{
			"buffer":0,
			"byteLength":9792,
			"byteOffset":149976,
			"target":34963
		},
		{
			"buffer":0,
			"byteLength":9516,
			"byteOffset":159768,
			"target":34962
		},
		{
			"buffer":0,
			"byteLength":9516,
			"byteOffset":169284,
			"target":34962
		},
		{
			"buffer":0,
			"byteLength":6344,
			"byteOffset":178800,
			"target":34962
		},
		{
			"buffer":0,
			"byteLength":8640,
			"byteOffset":185144,
			"target":34963
		},
		{
			"buffer":0,
			"byteLength":17856,
			"byteOffset":193784,
			"target":34962
		},
		{
			"buffer":0,
			"byteLength":17856,
			"byteOffset":211640,
			"target":34962
		},
		{
			"buffer":0,
			"byteLength":11904,
			"byteOffset":229496,
			"target":34962
		},
		{
			"buffer":0,
			"byteLength":8208,
			"byteOffset":241400,
			"target":34963
		}
	],
	"buffers":[
		{
			"byteLength":249608,
			"uri":"data:application/octet-stream;base64,"
		}
	]
}
