{
	"asset":{
		"generator":"Khronos glTF Blender I/O v3.6.28",
		"version":"2.0"
	},
	"scene":0,
	"scenes":[
		{
			"name":"Scene",
			"nodes":[
				0
			]
		}
	],
	"nodes":[
		{
			"mesh":0,
			"name":"Psyche_Spacecraft_-_Left_Solar_Panels"
		}
	],
	"materials":[
		{
			"doubleSided":true,
			"name":"Material.001",
			"pbrMetallicRoughness":{
				"baseColorFactor":[
					0.11068856716156006,
					0.11068856716156006,
					0.11068856716156006,
					1
				],
				"metallicFactor":0,
				"roughnessFactor":0.5
			}
		},
		{
			"doubleSided":true,
			"name":"Material.002",
			"pbrMetallicRoughness":{
				"baseColorFactor":[
					0.000284308975096792,
					0.0019837948493659496,
					0.06997721642255783,
					1
				],
				"metallicFactor":0,
				"roughnessFactor":0.5
			}
		},
		{
			"doubleSided":true,
			"name":"Material.003",
			"pbrMetallicRoughness":{
				"baseColorFactor":[
					0.8000000715255737,
					0.19034512341022491,
					0.017154499888420105,
					1
				],
				"metallicFactor":0,
				"roughnessFactor":0.5
			}
		}
	],
	"meshes":[
		{
			"name":"Psyche_Spacecraft_-_Left_Solar_Panels",
			"primitives":[
				{
					"attributes":{
						"POSITION":0,
						"NORMAL":1
					},
					"indices":2,
					"material":0
				},
				{
					"attributes":{
						"POSITION":3,
						"NORMAL":4
					},
					"indices":5,
					"material":1
				},
				{
					"attributes":{
						"POSITION":6,
						"NORMAL":7
					},
					"indices":8,
					"material":2
				}
			]
		}
	],
	"accessors":[
		{
			"bufferView":0,
			"componentType":5126,
			"count":1188,
			"max":[
				162,
				30.25,
				-122
			],
			"min":[
				-75.24500274658203,
				19.600000381469727,
				-264.20001220703125
			],
			"type":"VEC3"
		},
		{
			"bufferView":1,
			"componentType":5126,
			"count":1188,
			"type":"VEC3"
		},
		{
			"bufferView":2,
			"componentType":5123,
			"count":2019,
			"type":"SCALAR"
		},
		{
			"bufferView":3,
			"componentType":5126,
			"count":23096,
			"max":[
				162,
				24.600000381469727,
				-122
			],
			"min":[
				-29.69700050354004,
				19.600000381469727,
				-264.20001220703125
			],
			"type":"VEC3"
		},
		{
			"bufferView":4,
			"componentType":5126,
			"count":23096,
			"type":"VEC3"
		},
		{
			"bufferView":5,
			"componentType":5123,
			"count":33075,
			"type":"SCALAR"
		},
		{
			"bufferView":6,
			"componentType":5126,
			"count":80,
			"max":[
				135.28599548339844,
				24.600000381469727,
				-122.74400329589844
			],
			"min":[
				6.429999828338623,
				24.600000381469727,
				-263.45599365234375
			],
			"type":"VEC3"
		},
		{
			"bufferView":7,
			"componentType":5126,
			"count":80,
			"type":"VEC3"
		},
		{
			"bufferView":8,
			"componentType":5123,
			"count":120,
			"type":"SCALAR"
		}
	],
	"bufferViews":[
		{
			"buffer":0,
			"byteLength":14256,
			"byteOffset":0,
			"target":34962
		},
		{
			"buffer":0,
			"byteLength":14256,
			"byteOffset":14256,
			"target":34962
		},
		{
			"buffer":0,
			"byteLength":4038,
			"byteOffset":28512,
			"target":34963
		},
		{
			"buffer":0,
			"byteLength":277152,
			"byteOffset":32552,
			"target":34962
		},
		{
			"buffer":0,
			"byteLength":277152,
			"byteOffset":309704,
			"target":34962
		},
		{
			"buffer":0,
			"byteLength":66150,
			"byteOffset":586856,
			"target":34963
		},
		{
			"buffer":0,
			"byteLength":960,
			"byteOffset":653008,
			"target":34962
		},
		{
			"buffer":0,
			"byteLength":960,
			"byteOffset":653968,
			"target":34962
		},
		{
			"buffer":0,
			"byteLength":240,
			"byteOffset":654928,
			"target":34963
		}
	],
	"buffers":[
		{
			"byteLength":655168,
			"uri":"data:application/octet-stream;base64,"
		}
	]
}
