{
	"asset":{
		"generator":"Khronos glTF Blender I/O v3.6.28",
		"version":"2.0"
	},
	"scene":0,
	"scenes":[
		{
			"name":"Scene",
			"nodes":[
				0
			]
		}
	],
	"nodes":[
		{
			"mesh":0,
			"name":"Psyche_Spacecraft_-_Left_Solar_Panels",
			"scale":[
				0.009999999776482582,
				0.009999999776482582,
				0.009999999776482582
			]
		}
	],
	"materials":[
		{
			"doubleSided":true,
			"name":"Material.001",
			"pbrMetallicRoughness":{
				"baseColorFactor":[
					0.11068856716156006,
					0.11068856716156006,
					0.11068856716156006,
					1
				],
				"metallicFactor":0,
				"roughnessFactor":0.5
			}
		},
		{
			"doubleSided":true,
			"name":"Material.002",
			"pbrMetallicRoughness":{
				"baseColorFactor":[
					0.000284308975096792,
					0.0019837948493659496,
					0.06997721642255783,
					1
				],
				"metallicFactor":0,
				"roughnessFactor":0.5
			}
		},
		{
			"doubleSided":true,
			"name":"Material.003",
			"pbrMetallicRoughness":{
				"baseColorFactor":[
					0.8000000715255737,
					0.19034512341022491,
					0.017154499888420105,
					1
				],
				"metallicFactor":0,
				"roughnessFactor":0.5
			}
		}
	],
	"meshes":[
		{
			"name":"Psyche_Spacecraft_-_Left_Solar_Panels",
			"primitives":[
				{
					"attributes":{
						"POSITION":0,
						"NORMAL":1
					},
					"indices":2,
					"material":0
				},
				{
					"attributes":{
						"POSITION":3,
						"NORMAL":4
					},
					"indices":5,
					"material":1
				},
				{
					"attributes":{
						"POSITION":6,
						"NORMAL":7
					},
					"indices":8,
					"material":2
				}
			]
		}
	],
	"accessors":[
		{
			"bufferView":0,
			"componentType":5126,
			"count":1225,
			"max":[
				102.49319458007812,
				8.188369750976562,
				71.17083740234375
			],
			"min":[
				-134.75181579589844,
				-2.461629867553711,
				-71.0291748046875
			],
			"type":"VEC3"
		},
		{
			"bufferView":1,
			"componentType":5126,
			"count":1225,
			"type":"VEC3"
		},
		{
			"bufferView":2,
			"componentType":5123,
			"count":2019,
			"type":"SCALAR"
		},
		{
			"bufferView":3,
			"componentType":5126,
			"count":23446,
			"max":[
				102.49319458007812,
				2.538370132446289,
				71.17083740234375
			],
			"min":[
				-89.20381164550781,
				-2.461629867553711,
				-71.0291748046875
			],
			"type":"VEC3"
		},
		{
			"bufferView":4,
			"componentType":5126,
			"count":23446,
			"type":"VEC3"
		},
		{
			"bufferView":5,
			"componentType":5123,
			"count":33075,
			"type":"SCALAR"
		},
		{
			"bufferView":6,
			"componentType":5126,
			"count":80,
			"max":[
				75.77919006347656,
				2.538370132446289,
				70.42683410644531
			],
			"min":[
				-53.07680892944336,
				2.538370132446289,
				-70.28515625
			],
			"type":"VEC3"
		},
		{
			"bufferView":7,
			"componentType":5126,
			"count":80,
			"type":"VEC3"
		},
		{
			"bufferView":8,
			"componentType":5123,
			"count":120,
			"type":"SCALAR"
		}
	],
	"bufferViews":[
		{
			"buffer":0,
			"byteLength":14700,
			"byteOffset":0,
			"target":34962
		},
		{
			"buffer":0,
			"byteLength":14700,
			"byteOffset":14700,
			"target":34962
		},
		{
			"buffer":0,
			"byteLength":4038,
			"byteOffset":29400,
			"target":34963
		},
		{
			"buffer":0,
			"byteLength":281352,
			"byteOffset":33440,
			"target":34962
		},
		{
			"buffer":0,
			"byteLength":281352,
			"byteOffset":314792,
			"target":34962
		},
		{
			"buffer":0,
			"byteLength":66150,
			"byteOffset":596144,
			"target":34963
		},
		{
			"buffer":0,
			"byteLength":960,
			"byteOffset":662296,
			"target":34962
		},
		{
			"buffer":0,
			"byteLength":960,
			"byteOffset":663256,
			"target":34962
		},
		{
			"buffer":0,
			"byteLength":240,
			"byteOffset":664216,
			"target":34963
		}
	],
	"buffers":[
		{
			"byteLength":664456,
			"uri":"data:application/octet-stream;base64,"
		}
	]
}
