{
	"asset":{
		"generator":"Khronos glTF Blender I/O v3.6.28",
		"version":"2.0"
	},
	"scene":0,
	"scenes":[
		{
			"name":"Scene",
			"nodes":[
				0
			]
		}
	],
	"nodes":[
		{
			"mesh":0,
			"name":"Cube.002",
			"scale":[
				2.078472852706909,
				2.078472852706909,
				0.20612579584121704
			]
		}
	],
	"materials":[
		{
			"doubleSided":true,
			"name":"Material.002",
			"pbrMetallicRoughness":{
				"baseColorFactor":[
					0.004895646590739489,
					0.004895646590739489,
					0.004895646590739489,
					1
				],
				"metallicFactor":0,
				"roughnessFactor":0.5
			}
		},
		{
			"doubleSided":true,
			"name":"Material.003",
			"pbrMetallicRoughness":{
				"baseColorFactor":[
					0.233014777302742,
					0.233014777302742,
					0.233014777302742,
					1
				],
				"metallicFactor":0,
				"roughnessFactor":0.5
			}
		},
		{
			"doubleSided":true,
			"name":"Material.008",
			"pbrMetallicRoughness":{
				"baseColorFactor":[
					0.6269999742507935,
					0.39601320028305054,
					0.049532994627952576,
					1
				],
				"metallicFactor":0,
				"roughnessFactor":0.5
			}
		},
		{
			"doubleSided":true,
			"name":"Material.009",
			"pbrMetallicRoughness":{
				"baseColorFactor":[
					0.4019678831100464,
					0.08276291191577911,
					0.025014320388436317,
					1
				],
				"metallicFactor":0,
				"roughnessFactor":0.5
			}
		},
		{
			"doubleSided":true,
			"name":"Material.010",
			"pbrMetallicRoughness":{
				"baseColorFactor":[
					0.22025670111179352,
					0.10711933672428131,
					0.004019543062895536,
					1
				],
				"metallicFactor":0,
				"roughnessFactor":0.5
			}
		},
		{
			"doubleSided":true,
			"name":"Material.011",
			"pbrMetallicRoughness":{
				"baseColorFactor":[
					0.43854284286499023,
					0.43854284286499023,
					0.43854284286499023,
					1
				],
				"metallicFactor":0,
				"roughnessFactor":0.5
			}
		},
		{
			"doubleSided":true,
			"name":"Material.004",
			"pbrMetallicRoughness":{
				"baseColorFactor":[
					0.517333984375,
					0.517333984375,
					0.517333984375,
					1
				],
				"metallicFactor":0,
				"roughnessFactor":0.5
			}
		},
		{
			"doubleSided":true,
			"name":"Material.005",
			"pbrMetallicRoughness":{
				"baseColorFactor":[
					0.2746773660182953,
					0.26635563373565674,
					0.26635563373565674,
					1
				],
				"metallicFactor":0,
				"roughnessFactor":0.5
			}
		},
		{
			"doubleSided":true,
			"name":"Material.006",
			"pbrMetallicRoughness":{
				"baseColorFactor":[
					0.8006564974784851,
					0.8006564974784851,
					0.8006564974784851,
					1
				],
				"metallicFactor":0,
				"roughnessFactor":0.5
			}
		},
		{
			"doubleSided":true,
			"name":"Material.007",
			"pbrMetallicRoughness":{
				"baseColorFactor":[
					0.6266610622406006,
					0.4084235429763794,
					0.04924453794956207,
					1
				],
				"metallicFactor":0,
				"roughnessFactor":0.5
			}
		}
	],
	"meshes":[
		{
			"name":"Cube.003",
			"primitives":[
				{
					"attributes":{
						"POSITION":0,
						"NORMAL":1,
						"TEXCOORD_0":2
					},
					"indices":3,
					"material":0
				},
				{
					"attributes":{
						"POSITION":4,
						"NORMAL":5,
						"TEXCOORD_0":6
					},
					"indices":7,
					"material":1
				},
				{
					"attributes":{
						"POSITION":8,
						"NORMAL":9,
						"TEXCOORD_0":10
					},
					"indices":11,
					"material":2
				},
				{
					"attributes":{
						"POSITION":12,
						"NORMAL":13,
						"TEXCOORD_0":14
					},
					"indices":15,
					"material":3
				},
				{
					"attributes":{
						"POSITION":16,
						"NORMAL":17,
						"TEXCOORD_0":18
					},
					"indices":19,
					"material":4
				},
				{
					"attributes":{
						"POSITION":20,
						"NORMAL":21,
						"TEXCOORD_0":22
					},
					"indices":23,
					"material":5
				},
				{
					"attributes":{
						"POSITION":24,
						"NORMAL":25,
						"TEXCOORD_0":26
					},
					"indices":3,
					"material":6
				},
				{
					"attributes":{
						"POSITION":27,
						"NORMAL":28,
						"TEXCOORD_0":29
					},
					"indices":7,
					"material":7
				},
				{
					"attributes":{
						"POSITION":30,
						"NORMAL":31,
						"TEXCOORD_0":32
					},
					"indices":33,
					"material":8
				},
				{
					"attributes":{
						"POSITION":34,
						"NORMAL":35,
						"TEXCOORD_0":36
					},
					"indices":37,
					"material":9
				}
			]
		}
	],
	"accessors":[
		{
			"bufferView":0,
			"componentType":5126,
			"count":1162,
			"max":[
				0.6142815947532654,
				1.1801780462265015,
				11.402576446533203
			],
			"min":[
				0.45764535665512085,
				-0.1508408784866333,
				9.89188003540039
			],
			"type":"VEC3"
		},
		{
			"bufferView":1,
			"componentType":5126,
			"count":1162,
			"type":"VEC3"
		},
		{
			"bufferView":2,
			"componentType":5126,
			"count":1162,
			"type":"VEC2"
		},
		{
			"bufferView":3,
			"componentType":5123,
			"count":3264,
			"type":"SCALAR"
		},
		{
			"bufferView":4,
			"componentType":5126,
			"count":1088,
			"max":[
				0.6469985246658325,
				1.2628741264343262,
				11.71811294555664
			],
			"min":[
				0.4249279499053955,
				-0.18104088306427002,
				9.576327323913574
			],
			"type":"VEC3"
		},
		{
			"bufferView":5,
			"componentType":5126,
			"count":1088,
			"type":"VEC3"
		},
		{
			"bufferView":6,
			"componentType":5126,
			"count":1088,
			"type":"VEC2"
		},
		{
			"bufferView":7,
			"componentType":5123,
			"count":1716,
			"type":"SCALAR"
		},
		{
			"bufferView":8,
			"componentType":5126,
			"count":582,
			"max":[
				0.9268481731414795,
				1.2937829494476318,
				9.856348991394043
			],
			"min":[
				-0.9321334362030029,
				-0.5651986598968506,
				2.506856918334961
			],
			"type":"VEC3"
		},
		{
			"bufferView":9,
			"componentType":5126,
			"count":582,
			"type":"VEC3"
		},
		{
			"bufferView":10,
			"componentType":5126,
			"count":582,
			"type":"VEC2"
		},
		{
			"bufferView":11,
			"componentType":5123,
			"count":2106,
			"type":"SCALAR"
		},
		{
			"bufferView":12,
			"componentType":5126,
			"count":148,
			"max":[
				0.4155576229095459,
				1.2472378015518188,
				7.103376388549805
			],
			"min":[
				-0.42084288597106934,
				-0.5186535120010376,
				3.3251686096191406
			],
			"type":"VEC3"
		},
		{
			"bufferView":13,
			"componentType":5126,
			"count":148,
			"type":"VEC3"
		},
		{
			"bufferView":14,
			"componentType":5126,
			"count":148,
			"type":"VEC2"
		},
		{
			"bufferView":15,
			"componentType":5123,
			"count":360,
			"type":"SCALAR"
		},
		{
			"bufferView":16,
			"componentType":5126,
			"count":150,
			"max":[
				0.9218326807022095,
				1.2472378015518188,
				3.3251686096191406
			],
			"min":[
				-0.9271179437637329,
				-0.5186535120010376,
				2.506856918334961
			],
			"type":"VEC3"
		},
		{
			"bufferView":17,
			"componentType":5126,
			"count":150,
			"type":"VEC3"
		},
		{
			"bufferView":18,
			"componentType":5126,
			"count":150,
			"type":"VEC2"
		},
		{
			"bufferView":19,
			"componentType":5123,
			"count":336,
			"type":"SCALAR"
		},
		{
			"bufferView":20,
			"componentType":5126,
			"count":890,
			"max":[
				0.8647425174713135,
				1.2754294872283936,
				9.856348991394043
			],
			"min":[
				-0.8700277805328369,
				-0.5366454720497131,
				5.617622375488281
			],
			"type":"VEC3"
		},
		{
			"bufferView":21,
			"componentType":5126,
			"count":890,
			"type":"VEC3"
		},
		{
			"bufferView":22,
			"componentType":5126,
			"count":890,
			"type":"VEC2"
		},
		{
			"bufferView":23,
			"componentType":5123,
			"count":2046,
			"type":"SCALAR"
		},
		{
			"bufferView":24,
			"componentType":5126,
			"count":1162,
			"max":[
				-0.4876134991645813,
				1.1794685125350952,
				11.224879264831543
			],
			"min":[
				-0.6442497372627258,
				-0.15155041217803955,
				9.71418285369873
			],
			"type":"VEC3"
		},
		{
			"bufferView":25,
			"componentType":5126,
			"count":1162,
			"type":"VEC3"
		},
		{
			"bufferView":26,
			"componentType":5126,
			"count":1162,
			"type":"VEC2"
		},
		{
			"bufferView":27,
			"componentType":5126,
			"count":1088,
			"max":[
				-0.45489656925201416,
				1.26216459274292,
				11.54041576385498
			],
			"min":[
				-0.6769671440124512,
				-0.18175041675567627,
				9.398630142211914
			],
			"type":"VEC3"
		},
		{
			"bufferView":28,
			"componentType":5126,
			"count":1088,
			"type":"VEC3"
		},
		{
			"bufferView":29,
			"componentType":5126,
			"count":1088,
			"type":"VEC2"
		},
		{
			"bufferView":30,
			"componentType":5126,
			"count":1492,
			"max":[
				0.650245726108551,
				-0.26766014099121094,
				12.096646308898926
			],
			"min":[
				-0.692435622215271,
				-0.5451239347457886,
				9.443231582641602
			],
			"type":"VEC3"
		},
		{
			"bufferView":31,
			"componentType":5126,
			"count":1492,
			"type":"VEC3"
		},
		{
			"bufferView":32,
			"componentType":5126,
			"count":1492,
			"type":"VEC2"
		},
		{
			"bufferView":33,
			"componentType":5123,
			"count":3648,
			"type":"SCALAR"
		},
		{
			"bufferView":34,
			"componentType":5126,
			"count":832,
			"max":[
				0.6752727031707764,
				-0.30148589611053467,
				11.840907096862793
			],
			"min":[
				-0.7700660228729248,
				-0.5242329835891724,
				9.699121475219727
			],
			"type":"VEC3"
		},
		{
			"bufferView":35,
			"componentType":5126,
			"count":832,
			"type":"VEC3"
		},
		{
			"bufferView":36,
			"componentType":5126,
			"count":832,
			"type":"VEC2"
		},
		{
			"bufferView":37,
			"componentType":5123,
			"count":1332,
			"type":"SCALAR"
		}
	],
	"bufferViews":[
		{
			"buffer":0,
			"byteLength":13944,
			"byteOffset":0,
			"target":34962
		},
		{
			"buffer":0,
			"byteLength":13944,
			"byteOffset":13944,
			"target":34962
		},
		{
			"buffer":0,
			"byteLength":9296,
			"byteOffset":27888,
			"target":34962
		},
		{
			"buffer":0,
			"byteLength":6528,
			"byteOffset":37184,
			"target":34963
		},
		{
			"buffer":0,
			"byteLength":13056,
			"byteOffset":43712,
			"target":34962
		},
		{
			"buffer":0,
			"byteLength":13056,
			"byteOffset":56768,
			"target":34962
		},
		{
			"buffer":0,
			"byteLength":8704,
			"byteOffset":69824,
			"target":34962
		},
		{
			"buffer":0,
			"byteLength":3432,
			"byteOffset":78528,
			"target":34963
		},
		{
			"buffer":0,
			"byteLength":6984,
			"byteOffset":81960,
			"target":34962
		},
		{
			"buffer":0,
			"byteLength":6984,
			"byteOffset":88944,
			"target":34962
		},
		{
			"buffer":0,
			"byteLength":4656,
			"byteOffset":95928,
			"target":34962
		},
		{
			"buffer":0,
			"byteLength":4212,
			"byteOffset":100584,
			"target":34963
		},
		{
			"buffer":0,
			"byteLength":1776,
			"byteOffset":104796,
			"target":34962
		},
		{
			"buffer":0,
			"byteLength":1776,
			"byteOffset":106572,
			"target":34962
		},
		{
			"buffer":0,
			"byteLength":1184,
			"byteOffset":108348,
			"target":34962
		},
		{
			"buffer":0,
			"byteLength":720,
			"byteOffset":109532,
			"target":34963
		},
		{
			"buffer":0,
			"byteLength":1800,
			"byteOffset":110252,
			"target":34962
		},
		{
			"buffer":0,
			"byteLength":1800,
			"byteOffset":112052,
			"target":34962
		},
		{
			"buffer":0,
			"byteLength":1200,
			"byteOffset":113852,
			"target":34962
		},
		{
			"buffer":0,
			"byteLength":672,
			"byteOffset":115052,
			"target":34963
		},
		{
			"buffer":0,
			"byteLength":10680,
			"byteOffset":115724,
			"target":34962
		},
		{
			"buffer":0,
			"byteLength":10680,
			"byteOffset":126404,
			"target":34962
		},
		{
			"buffer":0,
			"byteLength":7120,
			"byteOffset":137084,
			"target":34962
		},
		{
			"buffer":0,
			"byteLength":4092,
			"byteOffset":144204,
			"target":34963
		},
		{
			"buffer":0,
			"byteLength":13944,
			"byteOffset":148296,
			"target":34962
		},
		{
			"buffer":0,
			"byteLength":13944,
			"byteOffset":162240,
			"target":34962
		},
		{
			"buffer":0,
			"byteLength":9296,
			"byteOffset":176184,
			"target":34962
		},
		{
			"buffer":0,
			"byteLength":13056,
			"byteOffset":185480,
			"target":34962
		},
		{
			"buffer":0,
			"byteLength":13056,
			"byteOffset":198536,
			"target":34962
		},
		{
			"buffer":0,
			"byteLength":8704,
			"byteOffset":211592,
			"target":34962
		},
		{
			"buffer":0,
			"byteLength":17904,
			"byteOffset":220296,
			"target":34962
		},
		{
			"buffer":0,
			"byteLength":17904,
			"byteOffset":238200,
			"target":34962
		},
		{
			"buffer":0,
			"byteLength":11936,
			"byteOffset":256104,
			"target":34962
		},
		{
			"buffer":0,
			"byteLength":7296,
			"byteOffset":268040,
			"target":34963
		},
		{
			"buffer":0,
			"byteLength":9984,
			"byteOffset":275336,
			"target":34962
		},
		{
			"buffer":0,
			"byteLength":9984,
			"byteOffset":285320,
			"target":34962
		},
		{
			"buffer":0,
			"byteLength":6656,
			"byteOffset":295304,
			"target":34962
		},
		{
			"buffer":0,
			"byteLength":2664,
			"byteOffset":301960,
			"target":34963
		}
	],
	"buffers":[
		{
			"byteLength":304624,
			"uri":"data:application/octet-stream;base64,"
		}
	]
}
