{
	"asset":{
		"generator":"Khronos glTF Blender I/O v3.6.28",
		"version":"2.0"
	},
	"scene":0,
	"scenes":[
		{
			"name":"Scene",
			"nodes":[
				0,
				1,
				2,
				3,
				4,
				5,
				6,
				7,
				8,
				9,
				10,
				11,
				12
			]
		}
	],
	"nodes":[
		{
			"mesh":0,
			"name":"Psyche_Spacecraft_-_Bus"
		},
		{
			"mesh":1,
			"name":"Psyche_Spacecraft_-_Antenna",
			"translation":[
				2.966278076171875,
				1.8932334184646606,
				-4.418380260467529
			]
		},
		{
			"mesh":2,
			"name":"Psyche_Spacecraft_-_Right_Solar_Panels",
			"translation":[
				91.3634262084961,
				0,
				187.6125946044922
			]
		},
		{
			"mesh":3,
			"name":"Psyche_Spacecraft_-_Left_Solar_Panels",
			"rotation":[
				0,
				-0.9999974370002747,
				0,
				0.002265837276354432
			],
			"translation":[
				-63.52099609375,
				0,
				-200.57366943359375
			]
		},
		{
			"mesh":4,
			"name":"Cylinder",
			"scale":[
				0.38528555631637573,
				1,
				0.40237563848495483
			],
			"translation":[
				1.6096036434173584,
				51.59906768798828,
				-24.34471321105957
			]
		},
		{
			"mesh":5,
			"name":"Cylinder.001",
			"scale":[
				0.38528555631637573,
				1,
				0.40237563848495483
			],
			"translation":[
				30.386133193969727,
				51.59906768798828,
				-24.34471321105957
			]
		},
		{
			"mesh":6,
			"name":"Cube.001",
			"scale":[
				1.9319214820861816,
				1.9319214820861816,
				0.1915920525789261
			],
			"translation":[
				8.391851425170898,
				85.52202606201172,
				-18.07605743408203
			]
		},
		{
			"mesh":7,
			"name":"Cube.002",
			"scale":[
				2.078472852706909,
				2.078472852706909,
				0.20612579584121704
			],
			"translation":[
				8.397342681884766,
				84.76485443115234,
				-19.73183822631836
			]
		},
		{
			"mesh":8,
			"name":"Cube.003",
			"scale":[
				2.078472852706909,
				2.078472852706909,
				0.20612579584121704
			],
			"translation":[
				6.107084274291992,
				84.76338195800781,
				-19.76846694946289
			]
		},
		{
			"mesh":9,
			"name":"Cube.004",
			"rotation":[
				0,
				0,
				0.7035792469978333,
				0.7106168270111084
			],
			"scale":[
				2.078472852706909,
				2.078472852706909,
				0.20612579584121704
			],
			"translation":[
				9.411226272583008,
				82.79583740234375,
				-19.706527709960938
			]
		},
		{
			"mesh":10,
			"name":"BezierCurve",
			"scale":[
				2.0849084854125977,
				2.0849084854125977,
				2.0849084854125977
			],
			"translation":[
				9.335384368896484,
				87.88007354736328,
				-18.920421600341797
			]
		},
		{
			"mesh":11,
			"name":"BezierCurve.001",
			"rotation":[
				0.09083075076341629,
				0.16147013008594513,
				-0.965575635433197,
				0.18259473145008087
			],
			"scale":[
				2.0405213832855225,
				1.3581156730651855,
				1.9930429458618164
			],
			"translation":[
				7.591239929199219,
				87.40885925292969,
				-18.933765411376953
			]
		},
		{
			"mesh":12,
			"name":"BezierCurve.002",
			"rotation":[
				0.6986865401268005,
				-0.713006317615509,
				-0.041163962334394455,
				0.04200763255357742
			],
			"scale":[
				2.0849082469940186,
				2.0849084854125977,
				2.0849084854125977
			],
			"translation":[
				6.397258758544922,
				84.48553466796875,
				-17.03778648376465
			]
		}
	],
	"materials":[
		{
			"doubleSided":true,
			"name":"Material.008",
			"pbrMetallicRoughness":{
				"baseColorFactor":[
					0.6269999742507935,
					0.39601320028305054,
					0.049532994627952576,
					1
				],
				"metallicFactor":0,
				"roughnessFactor":0.5
			}
		},
		{
			"doubleSided":true,
			"name":"Material.009",
			"pbrMetallicRoughness":{
				"baseColorFactor":[
					0.4019678831100464,
					0.08276291191577911,
					0.025014320388436317,
					1
				],
				"metallicFactor":0,
				"roughnessFactor":0.5
			}
		},
		{
			"doubleSided":true,
			"name":"Material.010",
			"pbrMetallicRoughness":{
				"baseColorFactor":[
					0.22025670111179352,
					0.10711933672428131,
					0.004019543062895536,
					1
				],
				"metallicFactor":0,
				"roughnessFactor":0.5
			}
		},
		{
			"doubleSided":true,
			"name":"Material.011",
			"pbrMetallicRoughness":{
				"baseColorFactor":[
					0.43854284286499023,
					0.43854284286499023,
					0.43854284286499023,
					1
				],
				"metallicFactor":0,
				"roughnessFactor":0.5
			}
		},
		{
			"doubleSided":true,
			"name":"Material.002",
			"pbrMetallicRoughness":{
				"baseColorFactor":[
					0.004895646590739489,
					0.004895646590739489,
					0.004895646590739489,
					1
				],
				"metallicFactor":0,
				"roughnessFactor":0.5
			}
		},
		{
			"doubleSided":true,
			"name":"Material.003",
			"pbrMetallicRoughness":{
				"baseColorFactor":[
					0.233014777302742,
					0.233014777302742,
					0.233014777302742,
					1
				],
				"metallicFactor":0,
				"roughnessFactor":0.5
			}
		},
		{
			"doubleSided":true,
			"name":"Material.004",
			"pbrMetallicRoughness":{
				"baseColorFactor":[
					0.517333984375,
					0.517333984375,
					0.517333984375,
					1
				],
				"metallicFactor":0,
				"roughnessFactor":0.5
			}
		},
		{
			"doubleSided":true,
			"name":"Material.005",
			"pbrMetallicRoughness":{
				"baseColorFactor":[
					0.2746773660182953,
					0.26635563373565674,
					0.26635563373565674,
					1
				],
				"metallicFactor":0,
				"roughnessFactor":0.5
			}
		},
		{
			"doubleSided":true,
			"name":"Material.006",
			"pbrMetallicRoughness":{
				"baseColorFactor":[
					0.8006564974784851,
					0.8006564974784851,
					0.8006564974784851,
					1
				],
				"metallicFactor":0,
				"roughnessFactor":0.5
			}
		},
		{
			"doubleSided":true,
			"name":"Material.007",
			"pbrMetallicRoughness":{
				"baseColorFactor":[
					0.6266610622406006,
					0.4084235429763794,
					0.04924453794956207,
					1
				],
				"metallicFactor":0,
				"roughnessFactor":0.5
			}
		},
		{
			"doubleSided":true,
			"name":"Material.014",
			"pbrMetallicRoughness":{
				"baseColorFactor":[
					0.6859557032585144,
					0.6859557032585144,
					0.6859557032585144,
					1
				],
				"metallicFactor":0.7681159377098083,
				"roughnessFactor":0.5
			}
		},
		{
			"doubleSided":true,
			"name":"Material.013",
			"pbrMetallicRoughness":{
				"baseColorFactor":[
					0.7231045365333557,
					0.7742720246315002,
					0.751366376876831,
					1
				],
				"metallicFactor":0.7681159377098083,
				"roughnessFactor":0.5
			}
		},
		{
			"doubleSided":true,
			"name":"Material.012",
			"pbrMetallicRoughness":{
				"baseColorFactor":[
					0.5925784111022949,
					0.5925784111022949,
					0.5925784111022949,
					1
				],
				"metallicFactor":0.7681159377098083,
				"roughnessFactor":0.5
			}
		}
	],
	"meshes":[
		{
			"name":"Psyche_Spacecraft_-_Bus",
			"primitives":[
				{
					"attributes":{
						"POSITION":0,
						"NORMAL":1
					},
					"indices":2
				}
			]
		},
		{
			"name":"Psyche_Spacecraft_-_Antenna",
			"primitives":[
				{
					"attributes":{
						"POSITION":3,
						"NORMAL":4
					},
					"indices":5
				}
			]
		},
		{
			"name":"Psyche_Spacecraft_-_Right_Solar_Panels",
			"primitives":[
				{
					"attributes":{
						"POSITION":6,
						"NORMAL":7
					},
					"indices":8
				}
			]
		},
		{
			"name":"Psyche_Spacecraft_-_Left_Solar_Panels",
			"primitives":[
				{
					"attributes":{
						"POSITION":9,
						"NORMAL":10
					},
					"indices":8
				}
			]
		},
		{
			"name":"Cylinder",
			"primitives":[
				{
					"attributes":{
						"POSITION":11,
						"NORMAL":12,
						"TEXCOORD_0":13
					},
					"indices":14
				}
			]
		},
		{
			"name":"Cylinder.001",
			"primitives":[
				{
					"attributes":{
						"POSITION":15,
						"NORMAL":16,
						"TEXCOORD_0":17
					},
					"indices":14
				}
			]
		},
		{
			"name":"Cube.002",
			"primitives":[
				{
					"attributes":{
						"POSITION":18,
						"NORMAL":19,
						"TEXCOORD_0":20
					},
					"indices":21,
					"material":0
				},
				{
					"attributes":{
						"POSITION":22,
						"NORMAL":23,
						"TEXCOORD_0":24
					},
					"indices":25,
					"material":1
				},
				{
					"attributes":{
						"POSITION":26,
						"NORMAL":27,
						"TEXCOORD_0":28
					},
					"indices":29,
					"material":2
				},
				{
					"attributes":{
						"POSITION":30,
						"NORMAL":31,
						"TEXCOORD_0":32
					},
					"indices":33,
					"material":3
				}
			]
		},
		{
			"name":"Cube.003",
			"primitives":[
				{
					"attributes":{
						"POSITION":34,
						"NORMAL":35,
						"TEXCOORD_0":36
					},
					"indices":37,
					"material":4
				},
				{
					"attributes":{
						"POSITION":38,
						"NORMAL":39,
						"TEXCOORD_0":40
					},
					"indices":41,
					"material":5
				}
			]
		},
		{
			"name":"Cube.004",
			"primitives":[
				{
					"attributes":{
						"POSITION":42,
						"NORMAL":43,
						"TEXCOORD_0":44
					},
					"indices":37,
					"material":6
				},
				{
					"attributes":{
						"POSITION":45,
						"NORMAL":46,
						"TEXCOORD_0":47
					},
					"indices":41,
					"material":7
				}
			]
		},
		{
			"name":"Cube.005",
			"primitives":[
				{
					"attributes":{
						"POSITION":48,
						"NORMAL":49,
						"TEXCOORD_0":50
					},
					"indices":51,
					"material":8
				},
				{
					"attributes":{
						"POSITION":52,
						"NORMAL":53,
						"TEXCOORD_0":54
					},
					"indices":55,
					"material":9
				}
			]
		},
		{
			"name":"BezierCurve.002",
			"primitives":[
				{
					"attributes":{
						"POSITION":56,
						"NORMAL":57,
						"TEXCOORD_0":58
					},
					"indices":59,
					"material":10
				}
			]
		},
		{
			"name":"BezierCurve.003",
			"primitives":[
				{
					"attributes":{
						"POSITION":60,
						"NORMAL":61,
						"TEXCOORD_0":62
					},
					"indices":59,
					"material":11
				}
			]
		},
		{
			"name":"BezierCurve.004",
			"primitives":[
				{
					"attributes":{
						"POSITION":63,
						"NORMAL":64,
						"TEXCOORD_0":65
					},
					"indices":59,
					"material":12
				}
			]
		}
	],
	"accessors":[
		{
			"bufferView":0,
			"componentType":5126,
			"count":1012,
			"max":[
				39.30099868774414,
				50.599998474121094,
				19.100000381469727
			],
			"min":[
				-9.398999214172363,
				-8.157783857912823e-32,
				-35
			],
			"type":"VEC3"
		},
		{
			"bufferView":1,
			"componentType":5126,
			"count":1012,
			"type":"VEC3"
		},
		{
			"bufferView":2,
			"componentType":5123,
			"count":2016,
			"type":"SCALAR"
		},
		{
			"bufferView":3,
			"componentType":5126,
			"count":7818,
			"max":[
				29.5,
				73.91000366210938,
				20.91400146484375
			],
			"min":[
				-7.000000953674316,
				46,
				-8
			],
			"type":"VEC3"
		},
		{
			"bufferView":4,
			"componentType":5126,
			"count":7818,
			"type":"VEC3"
		},
		{
			"bufferView":5,
			"componentType":5123,
			"count":8787,
			"type":"SCALAR"
		},
		{
			"bufferView":6,
			"componentType":5126,
			"count":23887,
			"max":[
				162,
				30.25,
				-122
			],
			"min":[
				-75.24500274658203,
				19.600000381469727,
				-264.20001220703125
			],
			"type":"VEC3"
		},
		{
			"bufferView":7,
			"componentType":5126,
			"count":23887,
			"type":"VEC3"
		},
		{
			"bufferView":8,
			"componentType":5123,
			"count":34668,
			"type":"SCALAR"
		},
		{
			"bufferView":9,
			"componentType":5126,
			"count":23887,
			"max":[
				162,
				30.25,
				-122
			],
			"min":[
				-75.24500274658203,
				19.600000381469727,
				-264.20001220703125
			],
			"type":"VEC3"
		},
		{
			"bufferView":10,
			"componentType":5126,
			"count":23887,
			"type":"VEC3"
		},
		{
			"bufferView":11,
			"componentType":5126,
			"count":384,
			"max":[
				1.0000301599502563,
				40.348304748535156,
				1
			],
			"min":[
				-1,
				-1,
				-1
			],
			"type":"VEC3"
		},
		{
			"bufferView":12,
			"componentType":5126,
			"count":384,
			"type":"VEC3"
		},
		{
			"bufferView":13,
			"componentType":5126,
			"count":384,
			"type":"VEC2"
		},
		{
			"bufferView":14,
			"componentType":5123,
			"count":948,
			"type":"SCALAR"
		},
		{
			"bufferView":15,
			"componentType":5126,
			"count":384,
			"max":[
				1.0000301599502563,
				40.348304748535156,
				1
			],
			"min":[
				-1,
				-1,
				-1
			],
			"type":"VEC3"
		},
		{
			"bufferView":16,
			"componentType":5126,
			"count":384,
			"type":"VEC3"
		},
		{
			"bufferView":17,
			"componentType":5126,
			"count":384,
			"type":"VEC2"
		},
		{
			"bufferView":18,
			"componentType":5126,
			"count":582,
			"max":[
				1,
				1,
				1.9618072509765625
			],
			"min":[
				-1,
				-1,
				-5.945201396942139
			],
			"type":"VEC3"
		},
		{
			"bufferView":19,
			"componentType":5126,
			"count":582,
			"type":"VEC3"
		},
		{
			"bufferView":20,
			"componentType":5126,
			"count":582,
			"type":"VEC2"
		},
		{
			"bufferView":21,
			"componentType":5123,
			"count":2106,
			"type":"SCALAR"
		},
		{
			"bufferView":22,
			"componentType":5126,
			"count":148,
			"max":[
				0.4499240517616272,
				0.9499240517616272,
				-1
			],
			"min":[
				-0.4499240517616272,
				-0.9499240517616272,
				-5.064814567565918
			],
			"type":"VEC3"
		},
		{
			"bufferView":23,
			"componentType":5126,
			"count":148,
			"type":"VEC3"
		},
		{
			"bufferView":24,
			"componentType":5126,
			"count":148,
			"type":"VEC2"
		},
		{
			"bufferView":25,
			"componentType":5123,
			"count":360,
			"type":"SCALAR"
		},
		{
			"bufferView":26,
			"componentType":5126,
			"count":150,
			"max":[
				0.9946040511131287,
				0.9499240517616272,
				-5.064814567565918
			],
			"min":[
				-0.9946040511131287,
				-0.9499240517616272,
				-5.945201396942139
			],
			"type":"VEC3"
		},
		{
			"bufferView":27,
			"componentType":5126,
			"count":150,
			"type":"VEC3"
		},
		{
			"bufferView":28,
			"componentType":5126,
			"count":150,
			"type":"VEC2"
		},
		{
			"bufferView":29,
			"componentType":5123,
			"count":336,
			"type":"SCALAR"
		},
		{
			"bufferView":30,
			"componentType":5126,
			"count":890,
			"max":[
				0.9331831336021423,
				0.9802542924880981,
				1.9618072509765625
			],
			"min":[
				-0.9331831336021423,
				-0.9692808389663696,
				-2.5984601974487305
			],
			"type":"VEC3"
		},
		{
			"bufferView":31,
			"componentType":5126,
			"count":890,
			"type":"VEC3"
		},
		{
			"bufferView":32,
			"componentType":5126,
			"count":890,
			"type":"VEC2"
		},
		{
			"bufferView":33,
			"componentType":5123,
			"count":2046,
			"type":"SCALAR"
		},
		{
			"bufferView":34,
			"componentType":5126,
			"count":1162,
			"max":[
				0.6142815947532654,
				1.1801780462265015,
				11.402576446533203
			],
			"min":[
				0.45764535665512085,
				-0.1508408784866333,
				9.89188003540039
			],
			"type":"VEC3"
		},
		{
			"bufferView":35,
			"componentType":5126,
			"count":1162,
			"type":"VEC3"
		},
		{
			"bufferView":36,
			"componentType":5126,
			"count":1162,
			"type":"VEC2"
		},
		{
			"bufferView":37,
			"componentType":5123,
			"count":3264,
			"type":"SCALAR"
		},
		{
			"bufferView":38,
			"componentType":5126,
			"count":1088,
			"max":[
				0.6469985246658325,
				1.2628741264343262,
				11.71811294555664
			],
			"min":[
				0.4249279499053955,
				-0.18104088306427002,
				9.576327323913574
			],
			"type":"VEC3"
		},
		{
			"bufferView":39,
			"componentType":5126,
			"count":1088,
			"type":"VEC3"
		},
		{
			"bufferView":40,
			"componentType":5126,
			"count":1088,
			"type":"VEC2"
		},
		{
			"bufferView":41,
			"componentType":5123,
			"count":1716,
			"type":"SCALAR"
		},
		{
			"bufferView":42,
			"componentType":5126,
			"count":1162,
			"max":[
				0.6142815947532654,
				1.1801780462265015,
				11.402576446533203
			],
			"min":[
				0.45764535665512085,
				-0.1508408784866333,
				9.89188003540039
			],
			"type":"VEC3"
		},
		{
			"bufferView":43,
			"componentType":5126,
			"count":1162,
			"type":"VEC3"
		},
		{
			"bufferView":44,
			"componentType":5126,
			"count":1162,
			"type":"VEC2"
		},
		{
			"bufferView":45,
			"componentType":5126,
			"count":1088,
			"max":[
				0.6469985246658325,
				1.2628741264343262,
				11.71811294555664
			],
			"min":[
				0.4249279499053955,
				-0.18104088306427002,
				9.576327323913574
			],
			"type":"VEC3"
		},
		{
			"bufferView":46,
			"componentType":5126,
			"count":1088,
			"type":"VEC3"
		},
		{
			"bufferView":47,
			"componentType":5126,
			"count":1088,
			"type":"VEC2"
		},
		{
			"bufferView":48,
			"componentType":5126,
			"count":1472,
			"max":[
				0.6681771874427795,
				1.1846545934677124,
				11.973852157592773
			],
			"min":[
				0.40374070405960083,
				-0.15601268410682678,
				9.32043743133545
			],
			"type":"VEC3"
		},
		{
			"bufferView":49,
			"componentType":5126,
			"count":1472,
			"type":"VEC3"
		},
		{
			"bufferView":50,
			"componentType":5126,
			"count":1472,
			"type":"VEC2"
		},
		{
			"bufferView":51,
			"componentType":5123,
			"count":3648,
			"type":"SCALAR"
		},
		{
			"bufferView":52,
			"componentType":5126,
			"count":832,
			"max":[
				0.6469985246658325,
				1.2628741264343262,
				11.71811294555664
			],
			"min":[
				0.4249279499053955,
				-0.18104088306427002,
				9.576327323913574
			],
			"type":"VEC3"
		},
		{
			"bufferView":53,
			"componentType":5126,
			"count":832,
			"type":"VEC3"
		},
		{
			"bufferView":54,
			"componentType":5126,
			"count":832,
			"type":"VEC2"
		},
		{
			"bufferView":55,
			"componentType":5123,
			"count":1332,
			"type":"SCALAR"
		},
		{
			"bufferView":56,
			"componentType":5126,
			"count":1311,
			"max":[
				0.2878721356391907,
				-0.10603661090135574,
				0.617418110370636
			],
			"min":[
				-0.4418945908546448,
				-0.2689360976219177,
				0.23249587416648865
			],
			"type":"VEC3"
		},
		{
			"bufferView":57,
			"componentType":5126,
			"count":1311,
			"type":"VEC3"
		},
		{
			"bufferView":58,
			"componentType":5126,
			"count":1311,
			"type":"VEC2"
		},
		{
			"bufferView":59,
			"componentType":5123,
			"count":7392,
			"type":"SCALAR"
		},
		{
			"bufferView":60,
			"componentType":5126,
			"count":1311,
			"max":[
				0.2878721356391907,
				-0.10603661090135574,
				0.617418110370636
			],
			"min":[
				-0.4418945908546448,
				-0.2689360976219177,
				0.23249587416648865
			],
			"type":"VEC3"
		},
		{
			"bufferView":61,
			"componentType":5126,
			"count":1311,
			"type":"VEC3"
		},
		{
			"bufferView":62,
			"componentType":5126,
			"count":1311,
			"type":"VEC2"
		},
		{
			"bufferView":63,
			"componentType":5126,
			"count":1311,
			"max":[
				0.2878721356391907,
				-0.10603661090135574,
				0.617418110370636
			],
			"min":[
				-0.4418945908546448,
				-0.2689360976219177,
				0.23249587416648865
			],
			"type":"VEC3"
		},
		{
			"bufferView":64,
			"componentType":5126,
			"count":1311,
			"type":"VEC3"
		},
		{
			"bufferView":65,
			"componentType":5126,
			"count":1311,
			"type":"VEC2"
		}
	],
	"bufferViews":[
		{
			"buffer":0,
			"byteLength":12144,
			"byteOffset":0,
			"target":34962
		},
		{
			"buffer":0,
			"byteLength":12144,
			"byteOffset":12144,
			"target":34962
		},
		{
			"buffer":0,
			"byteLength":4032,
			"byteOffset":24288,
			"target":34963
		},
		{
			"buffer":0,
			"byteLength":93816,
			"byteOffset":28320,
			"target":34962
		},
		{
			"buffer":0,
			"byteLength":93816,
			"byteOffset":122136,
			"target":34962
		},
		{
			"buffer":0,
			"byteLength":17574,
			"byteOffset":215952,
			"target":34963
		},
		{
			"buffer":0,
			"byteLength":286644,
			"byteOffset":233528,
			"target":34962
		},
		{
			"buffer":0,
			"byteLength":286644,
			"byteOffset":520172,
			"target":34962
		},
		{
			"buffer":0,
			"byteLength":69336,
			"byteOffset":806816,
			"target":34963
		},
		{
			"buffer":0,
			"byteLength":286644,
			"byteOffset":876152,
			"target":34962
		},
		{
			"buffer":0,
			"byteLength":286644,
			"byteOffset":1162796,
			"target":34962
		},
		{
			"buffer":0,
			"byteLength":4608,
			"byteOffset":1449440,
			"target":34962
		},
		{
			"buffer":0,
			"byteLength":4608,
			"byteOffset":1454048,
			"target":34962
		},
		{
			"buffer":0,
			"byteLength":3072,
			"byteOffset":1458656,
			"target":34962
		},
		{
			"buffer":0,
			"byteLength":1896,
			"byteOffset":1461728,
			"target":34963
		},
		{
			"buffer":0,
			"byteLength":4608,
			"byteOffset":1463624,
			"target":34962
		},
		{
			"buffer":0,
			"byteLength":4608,
			"byteOffset":1468232,
			"target":34962
		},
		{
			"buffer":0,
			"byteLength":3072,
			"byteOffset":1472840,
			"target":34962
		},
		{
			"buffer":0,
			"byteLength":6984,
			"byteOffset":1475912,
			"target":34962
		},
		{
			"buffer":0,
			"byteLength":6984,
			"byteOffset":1482896,
			"target":34962
		},
		{
			"buffer":0,
			"byteLength":4656,
			"byteOffset":1489880,
			"target":34962
		},
		{
			"buffer":0,
			"byteLength":4212,
			"byteOffset":1494536,
			"target":34963
		},
		{
			"buffer":0,
			"byteLength":1776,
			"byteOffset":1498748,
			"target":34962
		},
		{
			"buffer":0,
			"byteLength":1776,
			"byteOffset":1500524,
			"target":34962
		},
		{
			"buffer":0,
			"byteLength":1184,
			"byteOffset":1502300,
			"target":34962
		},
		{
			"buffer":0,
			"byteLength":720,
			"byteOffset":1503484,
			"target":34963
		},
		{
			"buffer":0,
			"byteLength":1800,
			"byteOffset":1504204,
			"target":34962
		},
		{
			"buffer":0,
			"byteLength":1800,
			"byteOffset":1506004,
			"target":34962
		},
		{
			"buffer":0,
			"byteLength":1200,
			"byteOffset":1507804,
			"target":34962
		},
		{
			"buffer":0,
			"byteLength":672,
			"byteOffset":1509004,
			"target":34963
		},
		{
			"buffer":0,
			"byteLength":10680,
			"byteOffset":1509676,
			"target":34962
		},
		{
			"buffer":0,
			"byteLength":10680,
			"byteOffset":1520356,
			"target":34962
		},
		{
			"buffer":0,
			"byteLength":7120,
			"byteOffset":1531036,
			"target":34962
		},
		{
			"buffer":0,
			"byteLength":4092,
			"byteOffset":1538156,
			"target":34963
		},
		{
			"buffer":0,
			"byteLength":13944,
			"byteOffset":1542248,
			"target":34962
		},
		{
			"buffer":0,
			"byteLength":13944,
			"byteOffset":1556192,
			"target":34962
		},
		{
			"buffer":0,
			"byteLength":9296,
			"byteOffset":1570136,
			"target":34962
		},
		{
			"buffer":0,
			"byteLength":6528,
			"byteOffset":1579432,
			"target":34963
		},
		{
			"buffer":0,
			"byteLength":13056,
			"byteOffset":1585960,
			"target":34962
		},
		{
			"buffer":0,
			"byteLength":13056,
			"byteOffset":1599016,
			"target":34962
		},
		{
			"buffer":0,
			"byteLength":8704,
			"byteOffset":1612072,
			"target":34962
		},
		{
			"buffer":0,
			"byteLength":3432,
			"byteOffset":1620776,
			"target":34963
		},
		{
			"buffer":0,
			"byteLength":13944,
			"byteOffset":1624208,
			"target":34962
		},
		{
			"buffer":0,
			"byteLength":13944,
			"byteOffset":1638152,
			"target":34962
		},
		{
			"buffer":0,
			"byteLength":9296,
			"byteOffset":1652096,
			"target":34962
		},
		{
			"buffer":0,
			"byteLength":13056,
			"byteOffset":1661392,
			"target":34962
		},
		{
			"buffer":0,
			"byteLength":13056,
			"byteOffset":1674448,
			"target":34962
		},
		{
			"buffer":0,
			"byteLength":8704,
			"byteOffset":1687504,
			"target":34962
		},
		{
			"buffer":0,
			"byteLength":17664,
			"byteOffset":1696208,
			"target":34962
		},
		{
			"buffer":0,
			"byteLength":17664,
			"byteOffset":1713872,
			"target":34962
		},
		{
			"buffer":0,
			"byteLength":11776,
			"byteOffset":1731536,
			"target":34962
		},
		{
			"buffer":0,
			"byteLength":7296,
			"byteOffset":1743312,
			"target":34963
		},
		{
			"buffer":0,
			"byteLength":9984,
			"byteOffset":1750608,
			"target":34962
		},
		{
			"buffer":0,
			"byteLength":9984,
			"byteOffset":1760592,
			"target":34962
		},
		{
			"buffer":0,
			"byteLength":6656,
			"byteOffset":1770576,
			"target":34962
		},
		{
			"buffer":0,
			"byteLength":2664,
			"byteOffset":1777232,
			"target":34963
		},
		{
			"buffer":0,
			"byteLength":15732,
			"byteOffset":1779896,
			"target":34962
		},
		{
			"buffer":0,
			"byteLength":15732,
			"byteOffset":1795628,
			"target":34962
		},
		{
			"buffer":0,
			"byteLength":10488,
			"byteOffset":1811360,
			"target":34962
		},
		{
			"buffer":0,
			"byteLength":14784,
			"byteOffset":1821848,
			"target":34963
		},
		{
			"buffer":0,
			"byteLength":15732,
			"byteOffset":1836632,
			"target":34962
		},
		{
			"buffer":0,
			"byteLength":15732,
			"byteOffset":1852364,
			"target":34962
		},
		{
			"buffer":0,
			"byteLength":10488,
			"byteOffset":1868096,
			"target":34962
		},
		{
			"buffer":0,
			"byteLength":15732,
			"byteOffset":1878584,
			"target":34962
		},
		{
			"buffer":0,
			"byteLength":15732,
			"byteOffset":1894316,
			"target":34962
		},
		{
			"buffer":0,
			"byteLength":10488,
			"byteOffset":1910048,
			"target":34962
		}
	],
	"buffers":[
		{
			"byteLength":1920536,
			"uri":"data:application/octet-stream;base64,"
		}
	]
}
