{
	"asset":{
		"generator":"Khronos glTF Blender I/O v3.6.27",
		"version":"2.0"
	},
	"scene":0,
	"scenes":[
		{
			"name":"Scene",
			"nodes":[
				0
			]
		}
	],
	"nodes":[
		{
			"mesh":0,
			"name":"Cube.002",
			"scale":[
				0.03912930190563202,
				0.03912930190563202,
				0.003880521049723029
			]
		}
	],
	"materials":[
		{
			"doubleSided":true,
			"name":"Material.014",
			"pbrMetallicRoughness":{
				"baseColorFactor":[
					0.004895646590739489,
					0.004895646590739489,
					0.004895646590739489,
					1
				],
				"metallicFactor":0,
				"roughnessFactor":0.5
			}
		},
		{
			"doubleSided":true,
			"name":"Material.015",
			"pbrMetallicRoughness":{
				"baseColorFactor":[
					0.233014777302742,
					0.233014777302742,
					0.233014777302742,
					1
				],
				"metallicFactor":0,
				"roughnessFactor":0.5
			}
		},
		{
			"doubleSided":true,
			"name":"Material.016",
			"pbrMetallicRoughness":{
				"baseColorFactor":[
					0.6269999742507935,
					0.39601320028305054,
					0.049532994627952576,
					1
				],
				"metallicFactor":0,
				"roughnessFactor":0.5
			}
		},
		{
			"doubleSided":true,
			"name":"Material.017",
			"pbrMetallicRoughness":{
				"baseColorFactor":[
					0.4019678831100464,
					0.08276291191577911,
					0.025014320388436317,
					1
				],
				"metallicFactor":0,
				"roughnessFactor":0.5
			}
		},
		{
			"doubleSided":true,
			"name":"Material.018",
			"pbrMetallicRoughness":{
				"baseColorFactor":[
					0.22025670111179352,
					0.10711933672428131,
					0.004019543062895536,
					1
				],
				"metallicFactor":0,
				"roughnessFactor":0.5
			}
		},
		{
			"doubleSided":true,
			"name":"Material.019",
			"pbrMetallicRoughness":{
				"baseColorFactor":[
					0.43854284286499023,
					0.43854284286499023,
					0.43854284286499023,
					1
				],
				"metallicFactor":0,
				"roughnessFactor":0.5
			}
		},
		{
			"doubleSided":true,
			"name":"Material.020",
			"pbrMetallicRoughness":{
				"baseColorFactor":[
					0.517333984375,
					0.517333984375,
					0.517333984375,
					1
				],
				"metallicFactor":0,
				"roughnessFactor":0.5
			}
		},
		{
			"doubleSided":true,
			"name":"Material.021",
			"pbrMetallicRoughness":{
				"baseColorFactor":[
					0.2746773660182953,
					0.26635563373565674,
					0.26635563373565674,
					1
				],
				"metallicFactor":0,
				"roughnessFactor":0.5
			}
		},
		{
			"doubleSided":true,
			"name":"Material.022",
			"pbrMetallicRoughness":{
				"baseColorFactor":[
					0.8006564974784851,
					0.8006564974784851,
					0.8006564974784851,
					1
				],
				"metallicFactor":0,
				"roughnessFactor":0.5
			}
		},
		{
			"doubleSided":true,
			"name":"Material.023",
			"pbrMetallicRoughness":{
				"baseColorFactor":[
					0.6266610622406006,
					0.4084235429763794,
					0.04924453794956207,
					1
				],
				"metallicFactor":0,
				"roughnessFactor":0.5
			}
		}
	],
	"meshes":[
		{
			"name":"Cube.003",
			"primitives":[
				{
					"attributes":{
						"POSITION":0,
						"NORMAL":1,
						"TEXCOORD_0":2
					},
					"indices":3,
					"material":0
				},
				{
					"attributes":{
						"POSITION":4,
						"NORMAL":5,
						"TEXCOORD_0":6
					},
					"indices":7,
					"material":1
				},
				{
					"attributes":{
						"POSITION":8,
						"NORMAL":9,
						"TEXCOORD_0":10
					},
					"indices":11,
					"material":2
				},
				{
					"attributes":{
						"POSITION":12,
						"NORMAL":13,
						"TEXCOORD_0":14
					},
					"indices":15,
					"material":3
				},
				{
					"attributes":{
						"POSITION":16,
						"NORMAL":17,
						"TEXCOORD_0":18
					},
					"indices":19,
					"material":4
				},
				{
					"attributes":{
						"POSITION":20,
						"NORMAL":21,
						"TEXCOORD_0":22
					},
					"indices":23,
					"material":5
				},
				{
					"attributes":{
						"POSITION":24,
						"NORMAL":25,
						"TEXCOORD_0":26
					},
					"indices":27,
					"material":6
				},
				{
					"attributes":{
						"POSITION":28,
						"NORMAL":29,
						"TEXCOORD_0":30
					},
					"indices":31,
					"material":7
				},
				{
					"attributes":{
						"POSITION":32,
						"NORMAL":33,
						"TEXCOORD_0":34
					},
					"indices":35,
					"material":8
				},
				{
					"attributes":{
						"POSITION":36,
						"NORMAL":37,
						"TEXCOORD_0":38
					},
					"indices":39,
					"material":9
				}
			]
		}
	],
	"accessors":[
		{
			"bufferView":0,
			"componentType":5126,
			"count":1195,
			"max":[
				0.6142815947532654,
				1.1801780462265015,
				11.402576446533203
			],
			"min":[
				0.45764535665512085,
				-0.1508408784866333,
				9.89188003540039
			],
			"type":"VEC3"
		},
		{
			"bufferView":1,
			"componentType":5126,
			"count":1195,
			"type":"VEC3"
		},
		{
			"bufferView":2,
			"componentType":5126,
			"count":1195,
			"type":"VEC2"
		},
		{
			"bufferView":3,
			"componentType":5123,
			"count":3264,
			"type":"SCALAR"
		},
		{
			"bufferView":4,
			"componentType":5126,
			"count":1128,
			"max":[
				0.6469985246658325,
				1.2628741264343262,
				11.71811294555664
			],
			"min":[
				0.4249279499053955,
				-0.18104088306427002,
				9.576327323913574
			],
			"type":"VEC3"
		},
		{
			"bufferView":5,
			"componentType":5126,
			"count":1128,
			"type":"VEC3"
		},
		{
			"bufferView":6,
			"componentType":5126,
			"count":1128,
			"type":"VEC2"
		},
		{
			"bufferView":7,
			"componentType":5123,
			"count":1716,
			"type":"SCALAR"
		},
		{
			"bufferView":8,
			"componentType":5126,
			"count":609,
			"max":[
				0.9268481731414795,
				1.2937829494476318,
				9.856348991394043
			],
			"min":[
				-0.9321334362030029,
				-0.5651986598968506,
				2.506856918334961
			],
			"type":"VEC3"
		},
		{
			"bufferView":9,
			"componentType":5126,
			"count":609,
			"type":"VEC3"
		},
		{
			"bufferView":10,
			"componentType":5126,
			"count":609,
			"type":"VEC2"
		},
		{
			"bufferView":11,
			"componentType":5123,
			"count":2106,
			"type":"SCALAR"
		},
		{
			"bufferView":12,
			"componentType":5126,
			"count":148,
			"max":[
				0.4155576229095459,
				1.2472378015518188,
				7.103376388549805
			],
			"min":[
				-0.42084288597106934,
				-0.5186535120010376,
				3.3251686096191406
			],
			"type":"VEC3"
		},
		{
			"bufferView":13,
			"componentType":5126,
			"count":148,
			"type":"VEC3"
		},
		{
			"bufferView":14,
			"componentType":5126,
			"count":148,
			"type":"VEC2"
		},
		{
			"bufferView":15,
			"componentType":5123,
			"count":360,
			"type":"SCALAR"
		},
		{
			"bufferView":16,
			"componentType":5126,
			"count":150,
			"max":[
				0.9218326807022095,
				1.2472378015518188,
				3.3251686096191406
			],
			"min":[
				-0.9271179437637329,
				-0.5186535120010376,
				2.506856918334961
			],
			"type":"VEC3"
		},
		{
			"bufferView":17,
			"componentType":5126,
			"count":150,
			"type":"VEC3"
		},
		{
			"bufferView":18,
			"componentType":5126,
			"count":150,
			"type":"VEC2"
		},
		{
			"bufferView":19,
			"componentType":5123,
			"count":336,
			"type":"SCALAR"
		},
		{
			"bufferView":20,
			"componentType":5126,
			"count":894,
			"max":[
				0.8647425174713135,
				1.2754294872283936,
				9.856348991394043
			],
			"min":[
				-0.8700277805328369,
				-0.5366454720497131,
				5.617622375488281
			],
			"type":"VEC3"
		},
		{
			"bufferView":21,
			"componentType":5126,
			"count":894,
			"type":"VEC3"
		},
		{
			"bufferView":22,
			"componentType":5126,
			"count":894,
			"type":"VEC2"
		},
		{
			"bufferView":23,
			"componentType":5123,
			"count":2046,
			"type":"SCALAR"
		},
		{
			"bufferView":24,
			"componentType":5126,
			"count":1200,
			"max":[
				-0.4876134991645813,
				1.1794685125350952,
				11.224879264831543
			],
			"min":[
				-0.6442497372627258,
				-0.15155041217803955,
				9.71418285369873
			],
			"type":"VEC3"
		},
		{
			"bufferView":25,
			"componentType":5126,
			"count":1200,
			"type":"VEC3"
		},
		{
			"bufferView":26,
			"componentType":5126,
			"count":1200,
			"type":"VEC2"
		},
		{
			"bufferView":27,
			"componentType":5123,
			"count":3264,
			"type":"SCALAR"
		},
		{
			"bufferView":28,
			"componentType":5126,
			"count":1136,
			"max":[
				-0.45489656925201416,
				1.26216459274292,
				11.54041576385498
			],
			"min":[
				-0.6769671440124512,
				-0.18175041675567627,
				9.398630142211914
			],
			"type":"VEC3"
		},
		{
			"bufferView":29,
			"componentType":5126,
			"count":1136,
			"type":"VEC3"
		},
		{
			"bufferView":30,
			"componentType":5126,
			"count":1136,
			"type":"VEC2"
		},
		{
			"bufferView":31,
			"componentType":5123,
			"count":1716,
			"type":"SCALAR"
		},
		{
			"bufferView":32,
			"componentType":5126,
			"count":1639,
			"max":[
				0.650245726108551,
				-0.26766014099121094,
				12.096646308898926
			],
			"min":[
				-0.692435622215271,
				-0.5451239347457886,
				9.443231582641602
			],
			"type":"VEC3"
		},
		{
			"bufferView":33,
			"componentType":5126,
			"count":1639,
			"type":"VEC3"
		},
		{
			"bufferView":34,
			"componentType":5126,
			"count":1639,
			"type":"VEC2"
		},
		{
			"bufferView":35,
			"componentType":5123,
			"count":3648,
			"type":"SCALAR"
		},
		{
			"bufferView":36,
			"componentType":5126,
			"count":914,
			"max":[
				0.6752727031707764,
				-0.30148589611053467,
				11.840907096862793
			],
			"min":[
				-0.7700660228729248,
				-0.5242329835891724,
				9.699121475219727
			],
			"type":"VEC3"
		},
		{
			"bufferView":37,
			"componentType":5126,
			"count":914,
			"type":"VEC3"
		},
		{
			"bufferView":38,
			"componentType":5126,
			"count":914,
			"type":"VEC2"
		},
		{
			"bufferView":39,
			"componentType":5123,
			"count":1332,
			"type":"SCALAR"
		}
	],
	"bufferViews":[
		{
			"buffer":0,
			"byteLength":14340,
			"byteOffset":0,
			"target":34962
		},
		{
			"buffer":0,
			"byteLength":14340,
			"byteOffset":14340,
			"target":34962
		},
		{
			"buffer":0,
			"byteLength":9560,
			"byteOffset":28680,
			"target":34962
		},
		{
			"buffer":0,
			"byteLength":6528,
			"byteOffset":38240,
			"target":34963
		},
		{
			"buffer":0,
			"byteLength":13536,
			"byteOffset":44768,
			"target":34962
		},
		{
			"buffer":0,
			"byteLength":13536,
			"byteOffset":58304,
			"target":34962
		},
		{
			"buffer":0,
			"byteLength":9024,
			"byteOffset":71840,
			"target":34962
		},
		{
			"buffer":0,
			"byteLength":3432,
			"byteOffset":80864,
			"target":34963
		},
		{
			"buffer":0,
			"byteLength":7308,
			"byteOffset":84296,
			"target":34962
		},
		{
			"buffer":0,
			"byteLength":7308,
			"byteOffset":91604,
			"target":34962
		},
		{
			"buffer":0,
			"byteLength":4872,
			"byteOffset":98912,
			"target":34962
		},
		{
			"buffer":0,
			"byteLength":4212,
			"byteOffset":103784,
			"target":34963
		},
		{
			"buffer":0,
			"byteLength":1776,
			"byteOffset":107996,
			"target":34962
		},
		{
			"buffer":0,
			"byteLength":1776,
			"byteOffset":109772,
			"target":34962
		},
		{
			"buffer":0,
			"byteLength":1184,
			"byteOffset":111548,
			"target":34962
		},
		{
			"buffer":0,
			"byteLength":720,
			"byteOffset":112732,
			"target":34963
		},
		{
			"buffer":0,
			"byteLength":1800,
			"byteOffset":113452,
			"target":34962
		},
		{
			"buffer":0,
			"byteLength":1800,
			"byteOffset":115252,
			"target":34962
		},
		{
			"buffer":0,
			"byteLength":1200,
			"byteOffset":117052,
			"target":34962
		},
		{
			"buffer":0,
			"byteLength":672,
			"byteOffset":118252,
			"target":34963
		},
		{
			"buffer":0,
			"byteLength":10728,
			"byteOffset":118924,
			"target":34962
		},
		{
			"buffer":0,
			"byteLength":10728,
			"byteOffset":129652,
			"target":34962
		},
		{
			"buffer":0,
			"byteLength":7152,
			"byteOffset":140380,
			"target":34962
		},
		{
			"buffer":0,
			"byteLength":4092,
			"byteOffset":147532,
			"target":34963
		},
		{
			"buffer":0,
			"byteLength":14400,
			"byteOffset":151624,
			"target":34962
		},
		{
			"buffer":0,
			"byteLength":14400,
			"byteOffset":166024,
			"target":34962
		},
		{
			"buffer":0,
			"byteLength":9600,
			"byteOffset":180424,
			"target":34962
		},
		{
			"buffer":0,
			"byteLength":6528,
			"byteOffset":190024,
			"target":34963
		},
		{
			"buffer":0,
			"byteLength":13632,
			"byteOffset":196552,
			"target":34962
		},
		{
			"buffer":0,
			"byteLength":13632,
			"byteOffset":210184,
			"target":34962
		},
		{
			"buffer":0,
			"byteLength":9088,
			"byteOffset":223816,
			"target":34962
		},
		{
			"buffer":0,
			"byteLength":3432,
			"byteOffset":232904,
			"target":34963
		},
		{
			"buffer":0,
			"byteLength":19668,
			"byteOffset":236336,
			"target":34962
		},
		{
			"buffer":0,
			"byteLength":19668,
			"byteOffset":256004,
			"target":34962
		},
		{
			"buffer":0,
			"byteLength":13112,
			"byteOffset":275672,
			"target":34962
		},
		{
			"buffer":0,
			"byteLength":7296,
			"byteOffset":288784,
			"target":34963
		},
		{
			"buffer":0,
			"byteLength":10968,
			"byteOffset":296080,
			"target":34962
		},
		{
			"buffer":0,
			"byteLength":10968,
			"byteOffset":307048,
			"target":34962
		},
		{
			"buffer":0,
			"byteLength":7312,
			"byteOffset":318016,
			"target":34962
		},
		{
			"buffer":0,
			"byteLength":2664,
			"byteOffset":325328,
			"target":34963
		}
	],
	"buffers":[
		{
			"byteLength":327992,
			"uri":"data:application/octet-stream;base64,"
		}
	]
}
