{
	"asset":{
		"generator":"Khronos glTF Blender I/O v3.6.28",
		"version":"2.0"
	},
	"scene":0,
	"scenes":[
		{
			"name":"Scene",
			"nodes":[
				0
			]
		}
	],
	"nodes":[
		{
			"mesh":0,
			"name":"Psyche_Spacecraft_-_Right_Solar_Panels",
			"scale":[
				0.009999999776482582,
				0.009999999776482582,
				0.009999999776482582
			]
		}
	],
	"materials":[
		{
			"doubleSided":true,
			"name":"Material.001",
			"pbrMetallicRoughness":{
				"baseColorFactor":[
					0.00028000056045129895,
					0.0018138641025871038,
					0.07000000029802322,
					1
				],
				"metallicFactor":0,
				"roughnessFactor":0.5
			}
		},
		{
			"doubleSided":true,
			"name":"Material.002",
			"pbrMetallicRoughness":{
				"baseColorFactor":[
					0.11100000143051147,
					0.11100000143051147,
					0.11100000143051147,
					1
				],
				"metallicFactor":0,
				"roughnessFactor":0.5
			}
		},
		{
			"doubleSided":true,
			"name":"Material.003",
			"pbrMetallicRoughness":{
				"baseColorFactor":[
					0.800000011920929,
					0.190670445561409,
					0.01680002175271511,
					1
				],
				"metallicFactor":0,
				"roughnessFactor":0.5
			}
		}
	],
	"meshes":[
		{
			"name":"Psyche_Spacecraft_-_Right_Solar_Panels",
			"primitives":[
				{
					"attributes":{
						"POSITION":0,
						"NORMAL":1
					},
					"indices":2,
					"material":0
				},
				{
					"attributes":{
						"POSITION":3,
						"NORMAL":4
					},
					"indices":5,
					"material":1
				},
				{
					"attributes":{
						"POSITION":6,
						"NORMAL":7
					},
					"indices":8,
					"material":2
				}
			]
		}
	],
	"accessors":[
		{
			"bufferView":0,
			"componentType":5126,
			"count":23428,
			"max":[
				102.49324035644531,
				2.5383968353271484,
				71.17085266113281
			],
			"min":[
				-88.95675659179688,
				-2.4616031646728516,
				-71.02915954589844
			],
			"type":"VEC3"
		},
		{
			"bufferView":1,
			"componentType":5126,
			"count":23428,
			"type":"VEC3"
		},
		{
			"bufferView":2,
			"componentType":5123,
			"count":32874,
			"type":"SCALAR"
		},
		{
			"bufferView":3,
			"componentType":5126,
			"count":986,
			"max":[
				102.49324035644531,
				8.188396453857422,
				71.17085266113281
			],
			"min":[
				-134.7517547607422,
				-2.4616031646728516,
				-71.02915954589844
			],
			"type":"VEC3"
		},
		{
			"bufferView":4,
			"componentType":5126,
			"count":986,
			"type":"VEC3"
		},
		{
			"bufferView":5,
			"componentType":5123,
			"count":1671,
			"type":"SCALAR"
		},
		{
			"bufferView":6,
			"componentType":5126,
			"count":83,
			"max":[
				75.77923583984375,
				2.5383968353271484,
				70.42684936523438
			],
			"min":[
				-53.07675552368164,
				2.322397232055664,
				-70.28514099121094
			],
			"type":"VEC3"
		},
		{
			"bufferView":7,
			"componentType":5126,
			"count":83,
			"type":"VEC3"
		},
		{
			"bufferView":8,
			"componentType":5123,
			"count":123,
			"type":"SCALAR"
		}
	],
	"bufferViews":[
		{
			"buffer":0,
			"byteLength":281136,
			"byteOffset":0,
			"target":34962
		},
		{
			"buffer":0,
			"byteLength":281136,
			"byteOffset":281136,
			"target":34962
		},
		{
			"buffer":0,
			"byteLength":65748,
			"byteOffset":562272,
			"target":34963
		},
		{
			"buffer":0,
			"byteLength":11832,
			"byteOffset":628020,
			"target":34962
		},
		{
			"buffer":0,
			"byteLength":11832,
			"byteOffset":639852,
			"target":34962
		},
		{
			"buffer":0,
			"byteLength":3342,
			"byteOffset":651684,
			"target":34963
		},
		{
			"buffer":0,
			"byteLength":996,
			"byteOffset":655028,
			"target":34962
		},
		{
			"buffer":0,
			"byteLength":996,
			"byteOffset":656024,
			"target":34962
		},
		{
			"buffer":0,
			"byteLength":246,
			"byteOffset":657020,
			"target":34963
		}
	],
	"buffers":[
		{
			"byteLength":657268,
			"uri":"data:application/octet-stream;base64,"
		}
	]
}
