{
	"asset":{
		"generator":"Khronos glTF Blender I/O v3.6.27",
		"version":"2.0"
	},
	"scene":0,
	"scenes":[
		{
			"name":"Scene",
			"nodes":[
				0,
				1,
				2,
				3,
				4,
				5,
				6,
				7,
				8,
				9
			]
		}
	],
	"nodes":[
		{
			"mesh":0,
			"name":"Psyche_Spacecraft_-_Bus"
		},
		{
			"mesh":1,
			"name":"Psyche_Spacecraft_-_Antenna",
			"translation":[
				2.966278076171875,
				1.8932334184646606,
				-4.418380260467529
			]
		},
		{
			"mesh":2,
			"name":"Psyche_Spacecraft_-_Right_Solar_Panels",
			"translation":[
				91.3634262084961,
				0,
				187.6125946044922
			]
		},
		{
			"mesh":3,
			"name":"Psyche_Spacecraft_-_Left_Solar_Panels",
			"rotation":[
				0,
				-0.9999974370002747,
				0,
				0.002265837276354432
			],
			"translation":[
				-63.52099609375,
				0,
				-200.57366943359375
			]
		},
		{
			"mesh":4,
			"name":"Cylinder",
			"scale":[
				0.38528555631637573,
				1,
				0.40237563848495483
			],
			"translation":[
				1.6096036434173584,
				51.59906768798828,
				-24.34471321105957
			]
		},
		{
			"mesh":5,
			"name":"Cylinder.001",
			"scale":[
				0.38528555631637573,
				1,
				0.40237563848495483
			],
			"translation":[
				30.386133193969727,
				51.59906768798828,
				-24.34471321105957
			]
		},
		{
			"mesh":6,
			"name":"Cube.001",
			"scale":[
				0.6134039759635925,
				0.6134039759635925,
				0.060832347720861435
			],
			"translation":[
				24.062286376953125,
				85.42125701904297,
				-17.268526077270508
			]
		},
		{
			"mesh":7,
			"name":"Cube.002",
			"scale":[
				0.659935474395752,
				0.659935474395752,
				0.06544695794582367
			],
			"translation":[
				24.1106014251709,
				85.18084716796875,
				-17.794252395629883
			]
		},
		{
			"mesh":8,
			"name":"Cube.003",
			"scale":[
				0.659935474395752,
				0.659935474395752,
				0.06544695794582367
			],
			"translation":[
				23.277448654174805,
				85.18038177490234,
				-17.805883407592773
			]
		},
		{
			"mesh":9,
			"name":"Cube.004",
			"rotation":[
				0,
				0,
				0.7035792469978333,
				0.7106168270111084
			],
			"scale":[
				0.659935474395752,
				0.659935474395752,
				0.06544695794582367
			],
			"translation":[
				24.385948181152344,
				84.5556640625,
				-17.80289077758789
			]
		}
	],
	"meshes":[
		{
			"name":"Psyche_Spacecraft_-_Bus",
			"primitives":[
				{
					"attributes":{
						"POSITION":0,
						"NORMAL":1
					},
					"indices":2
				}
			]
		},
		{
			"name":"Psyche_Spacecraft_-_Antenna",
			"primitives":[
				{
					"attributes":{
						"POSITION":3,
						"NORMAL":4
					},
					"indices":5
				}
			]
		},
		{
			"name":"Psyche_Spacecraft_-_Right_Solar_Panels",
			"primitives":[
				{
					"attributes":{
						"POSITION":6,
						"NORMAL":7
					},
					"indices":8
				}
			]
		},
		{
			"name":"Psyche_Spacecraft_-_Left_Solar_Panels",
			"primitives":[
				{
					"attributes":{
						"POSITION":9,
						"NORMAL":10
					},
					"indices":8
				}
			]
		},
		{
			"name":"Cylinder",
			"primitives":[
				{
					"attributes":{
						"POSITION":11,
						"NORMAL":12,
						"TEXCOORD_0":13
					},
					"indices":14
				}
			]
		},
		{
			"name":"Cylinder.001",
			"primitives":[
				{
					"attributes":{
						"POSITION":15,
						"NORMAL":16,
						"TEXCOORD_0":17
					},
					"indices":14
				}
			]
		},
		{
			"name":"Cube.002",
			"primitives":[
				{
					"attributes":{
						"POSITION":18,
						"NORMAL":19,
						"TEXCOORD_0":20
					},
					"indices":21
				}
			]
		},
		{
			"name":"Cube.003",
			"primitives":[
				{
					"attributes":{
						"POSITION":22,
						"NORMAL":23,
						"TEXCOORD_0":24
					},
					"indices":25
				}
			]
		},
		{
			"name":"Cube.004",
			"primitives":[
				{
					"attributes":{
						"POSITION":26,
						"NORMAL":27,
						"TEXCOORD_0":28
					},
					"indices":25
				}
			]
		},
		{
			"name":"Cube.005",
			"primitives":[
				{
					"attributes":{
						"POSITION":29,
						"NORMAL":30,
						"TEXCOORD_0":31
					},
					"indices":32
				}
			]
		}
	],
	"accessors":[
		{
			"bufferView":0,
			"componentType":5126,
			"count":1012,
			"max":[
				39.30099868774414,
				50.599998474121094,
				19.100000381469727
			],
			"min":[
				-9.398999214172363,
				-8.157783857912823e-32,
				-35
			],
			"type":"VEC3"
		},
		{
			"bufferView":1,
			"componentType":5126,
			"count":1012,
			"type":"VEC3"
		},
		{
			"bufferView":2,
			"componentType":5123,
			"count":2016,
			"type":"SCALAR"
		},
		{
			"bufferView":3,
			"componentType":5126,
			"count":7818,
			"max":[
				29.5,
				73.91000366210938,
				20.91400146484375
			],
			"min":[
				-7.000000953674316,
				46,
				-8
			],
			"type":"VEC3"
		},
		{
			"bufferView":4,
			"componentType":5126,
			"count":7818,
			"type":"VEC3"
		},
		{
			"bufferView":5,
			"componentType":5123,
			"count":8787,
			"type":"SCALAR"
		},
		{
			"bufferView":6,
			"componentType":5126,
			"count":23887,
			"max":[
				162,
				30.25,
				-122
			],
			"min":[
				-75.24500274658203,
				19.600000381469727,
				-264.20001220703125
			],
			"type":"VEC3"
		},
		{
			"bufferView":7,
			"componentType":5126,
			"count":23887,
			"type":"VEC3"
		},
		{
			"bufferView":8,
			"componentType":5123,
			"count":34668,
			"type":"SCALAR"
		},
		{
			"bufferView":9,
			"componentType":5126,
			"count":23887,
			"max":[
				162,
				30.25,
				-122
			],
			"min":[
				-75.24500274658203,
				19.600000381469727,
				-264.20001220703125
			],
			"type":"VEC3"
		},
		{
			"bufferView":10,
			"componentType":5126,
			"count":23887,
			"type":"VEC3"
		},
		{
			"bufferView":11,
			"componentType":5126,
			"count":384,
			"max":[
				1.0000301599502563,
				40.348304748535156,
				1
			],
			"min":[
				-1,
				-1,
				-1
			],
			"type":"VEC3"
		},
		{
			"bufferView":12,
			"componentType":5126,
			"count":384,
			"type":"VEC3"
		},
		{
			"bufferView":13,
			"componentType":5126,
			"count":384,
			"type":"VEC2"
		},
		{
			"bufferView":14,
			"componentType":5123,
			"count":948,
			"type":"SCALAR"
		},
		{
			"bufferView":15,
			"componentType":5126,
			"count":384,
			"max":[
				1.0000301599502563,
				40.348304748535156,
				1
			],
			"min":[
				-1,
				-1,
				-1
			],
			"type":"VEC3"
		},
		{
			"bufferView":16,
			"componentType":5126,
			"count":384,
			"type":"VEC3"
		},
		{
			"bufferView":17,
			"componentType":5126,
			"count":384,
			"type":"VEC2"
		},
		{
			"bufferView":18,
			"componentType":5126,
			"count":1222,
			"max":[
				1,
				1,
				1.9618072509765625
			],
			"min":[
				-1,
				-1,
				-5.945201396942139
			],
			"type":"VEC3"
		},
		{
			"bufferView":19,
			"componentType":5126,
			"count":1222,
			"type":"VEC3"
		},
		{
			"bufferView":20,
			"componentType":5126,
			"count":1222,
			"type":"VEC2"
		},
		{
			"bufferView":21,
			"componentType":5123,
			"count":3768,
			"type":"SCALAR"
		},
		{
			"bufferView":22,
			"componentType":5126,
			"count":2250,
			"max":[
				0.6469985246658325,
				1.2628741264343262,
				11.71811294555664
			],
			"min":[
				0.4249279499053955,
				-0.18104088306427002,
				9.576327323913574
			],
			"type":"VEC3"
		},
		{
			"bufferView":23,
			"componentType":5126,
			"count":2250,
			"type":"VEC3"
		},
		{
			"bufferView":24,
			"componentType":5126,
			"count":2250,
			"type":"VEC2"
		},
		{
			"bufferView":25,
			"componentType":5123,
			"count":4980,
			"type":"SCALAR"
		},
		{
			"bufferView":26,
			"componentType":5126,
			"count":2250,
			"max":[
				0.6469985246658325,
				1.2628741264343262,
				11.71811294555664
			],
			"min":[
				0.4249279499053955,
				-0.18104088306427002,
				9.576327323913574
			],
			"type":"VEC3"
		},
		{
			"bufferView":27,
			"componentType":5126,
			"count":2250,
			"type":"VEC3"
		},
		{
			"bufferView":28,
			"componentType":5126,
			"count":2250,
			"type":"VEC2"
		},
		{
			"bufferView":29,
			"componentType":5126,
			"count":2304,
			"max":[
				0.6681771874427795,
				1.2628741264343262,
				11.973852157592773
			],
			"min":[
				0.40374070405960083,
				-0.18104088306427002,
				9.32043743133545
			],
			"type":"VEC3"
		},
		{
			"bufferView":30,
			"componentType":5126,
			"count":2304,
			"type":"VEC3"
		},
		{
			"bufferView":31,
			"componentType":5126,
			"count":2304,
			"type":"VEC2"
		},
		{
			"bufferView":32,
			"componentType":5123,
			"count":4980,
			"type":"SCALAR"
		}
	],
	"bufferViews":[
		{
			"buffer":0,
			"byteLength":12144,
			"byteOffset":0,
			"target":34962
		},
		{
			"buffer":0,
			"byteLength":12144,
			"byteOffset":12144,
			"target":34962
		},
		{
			"buffer":0,
			"byteLength":4032,
			"byteOffset":24288,
			"target":34963
		},
		{
			"buffer":0,
			"byteLength":93816,
			"byteOffset":28320,
			"target":34962
		},
		{
			"buffer":0,
			"byteLength":93816,
			"byteOffset":122136,
			"target":34962
		},
		{
			"buffer":0,
			"byteLength":17574,
			"byteOffset":215952,
			"target":34963
		},
		{
			"buffer":0,
			"byteLength":286644,
			"byteOffset":233528,
			"target":34962
		},
		{
			"buffer":0,
			"byteLength":286644,
			"byteOffset":520172,
			"target":34962
		},
		{
			"buffer":0,
			"byteLength":69336,
			"byteOffset":806816,
			"target":34963
		},
		{
			"buffer":0,
			"byteLength":286644,
			"byteOffset":876152,
			"target":34962
		},
		{
			"buffer":0,
			"byteLength":286644,
			"byteOffset":1162796,
			"target":34962
		},
		{
			"buffer":0,
			"byteLength":4608,
			"byteOffset":1449440,
			"target":34962
		},
		{
			"buffer":0,
			"byteLength":4608,
			"byteOffset":1454048,
			"target":34962
		},
		{
			"buffer":0,
			"byteLength":3072,
			"byteOffset":1458656,
			"target":34962
		},
		{
			"buffer":0,
			"byteLength":1896,
			"byteOffset":1461728,
			"target":34963
		},
		{
			"buffer":0,
			"byteLength":4608,
			"byteOffset":1463624,
			"target":34962
		},
		{
			"buffer":0,
			"byteLength":4608,
			"byteOffset":1468232,
			"target":34962
		},
		{
			"buffer":0,
			"byteLength":3072,
			"byteOffset":1472840,
			"target":34962
		},
		{
			"buffer":0,
			"byteLength":14664,
			"byteOffset":1475912,
			"target":34962
		},
		{
			"buffer":0,
			"byteLength":14664,
			"byteOffset":1490576,
			"target":34962
		},
		{
			"buffer":0,
			"byteLength":9776,
			"byteOffset":1505240,
			"target":34962
		},
		{
			"buffer":0,
			"byteLength":7536,
			"byteOffset":1515016,
			"target":34963
		},
		{
			"buffer":0,
			"byteLength":27000,
			"byteOffset":1522552,
			"target":34962
		},
		{
			"buffer":0,
			"byteLength":27000,
			"byteOffset":1549552,
			"target":34962
		},
		{
			"buffer":0,
			"byteLength":18000,
			"byteOffset":1576552,
			"target":34962
		},
		{
			"buffer":0,
			"byteLength":9960,
			"byteOffset":1594552,
			"target":34963
		},
		{
			"buffer":0,
			"byteLength":27000,
			"byteOffset":1604512,
			"target":34962
		},
		{
			"buffer":0,
			"byteLength":27000,
			"byteOffset":1631512,
			"target":34962
		},
		{
			"buffer":0,
			"byteLength":18000,
			"byteOffset":1658512,
			"target":34962
		},
		{
			"buffer":0,
			"byteLength":27648,
			"byteOffset":1676512,
			"target":34962
		},
		{
			"buffer":0,
			"byteLength":27648,
			"byteOffset":1704160,
			"target":34962
		},
		{
			"buffer":0,
			"byteLength":18432,
			"byteOffset":1731808,
			"target":34962
		},
		{
			"buffer":0,
			"byteLength":9960,
			"byteOffset":1750240,
			"target":34963
		}
	],
	"buffers":[
		{
			"byteLength":1760200,
			"uri":"gamma_ray_and_neutron_spectrometer.bin"
		}
	]
}
