{
	"asset":{
		"generator":"Khronos glTF Blender I/O v3.6.27",
		"version":"2.0"
	},
	"scene":0,
	"scenes":[
		{
			"name":"Scene",
			"nodes":[
				0,
				1,
				2,
				3,
				4,
				5,
				6
			]
		}
	],
	"nodes":[
		{
			"mesh":0,
			"name":"Cube.001",
			"scale":[
				0.6134039759635925,
				0.6134039759635925,
				0.060832347720861435
			],
			"translation":[
				24.062286376953125,
				85.42125701904297,
				-17.268526077270508
			]
		},
		{
			"mesh":1,
			"name":"Cube.002",
			"scale":[
				0.659935474395752,
				0.659935474395752,
				0.06544695794582367
			],
			"translation":[
				24.064029693603516,
				85.18084716796875,
				-17.794252395629883
			]
		},
		{
			"mesh":2,
			"name":"Cube.003",
			"scale":[
				0.659935474395752,
				0.659935474395752,
				0.06544695794582367
			],
			"translation":[
				23.336851119995117,
				85.18038177490234,
				-17.805883407592773
			]
		},
		{
			"mesh":3,
			"name":"Cube.004",
			"rotation":[
				0,
				0,
				0.7035792469978333,
				0.7106168270111084
			],
			"scale":[
				0.659935474395752,
				0.659935474395752,
				0.06544695794582367
			],
			"translation":[
				24.385948181152344,
				84.5556640625,
				-17.786216735839844
			]
		},
		{
			"mesh":4,
			"name":"BezierCurve",
			"scale":[
				0.6619788408279419,
				0.6619788408279419,
				0.6619788408279419
			],
			"translation":[
				24.361867904663086,
				86.16996002197266,
				-17.53662109375
			]
		},
		{
			"mesh":5,
			"name":"BezierCurve.001",
			"rotation":[
				0.09083075076341629,
				0.16147010028362274,
				-0.965575635433197,
				0.18259473145008087
			],
			"scale":[
				0.6478854417800903,
				0.4312150478363037,
				0.6328108310699463
			],
			"translation":[
				23.80808448791504,
				86.02034759521484,
				-17.540857315063477
			]
		},
		{
			"mesh":6,
			"name":"BezierCurve.002",
			"rotation":[
				0.6986865401268005,
				-0.7130063772201538,
				-0.04116396605968475,
				0.04200763627886772
			],
			"scale":[
				0.6619789004325867,
				0.6619789004325867,
				0.6619788408279419
			],
			"translation":[
				23.428983688354492,
				85.0921630859375,
				-16.938865661621094
			]
		}
	],
	"meshes":[
		{
			"name":"Cube.002",
			"primitives":[
				{
					"attributes":{
						"POSITION":0,
						"NORMAL":1,
						"TEXCOORD_0":2
					},
					"indices":3
				}
			]
		},
		{
			"name":"Cube.003",
			"primitives":[
				{
					"attributes":{
						"POSITION":4,
						"NORMAL":5,
						"TEXCOORD_0":6
					},
					"indices":7
				}
			]
		},
		{
			"name":"Cube.004",
			"primitives":[
				{
					"attributes":{
						"POSITION":8,
						"NORMAL":9,
						"TEXCOORD_0":10
					},
					"indices":7
				}
			]
		},
		{
			"name":"Cube.005",
			"primitives":[
				{
					"attributes":{
						"POSITION":11,
						"NORMAL":12,
						"TEXCOORD_0":13
					},
					"indices":14
				}
			]
		},
		{
			"name":"BezierCurve.002",
			"primitives":[
				{
					"attributes":{
						"POSITION":15,
						"NORMAL":16,
						"TEXCOORD_0":17
					},
					"indices":18
				}
			]
		},
		{
			"name":"BezierCurve.003",
			"primitives":[
				{
					"attributes":{
						"POSITION":19,
						"NORMAL":20,
						"TEXCOORD_0":21
					},
					"indices":18
				}
			]
		},
		{
			"name":"BezierCurve.004",
			"primitives":[
				{
					"attributes":{
						"POSITION":22,
						"NORMAL":23,
						"TEXCOORD_0":24
					},
					"indices":18
				}
			]
		}
	],
	"accessors":[
		{
			"bufferView":0,
			"componentType":5126,
			"count":1754,
			"max":[
				1,
				1,
				1.9618072509765625
			],
			"min":[
				-1,
				-1,
				-5.945201396942139
			],
			"type":"VEC3"
		},
		{
			"bufferView":1,
			"componentType":5126,
			"count":1754,
			"type":"VEC3"
		},
		{
			"bufferView":2,
			"componentType":5126,
			"count":1754,
			"type":"VEC2"
		},
		{
			"bufferView":3,
			"componentType":5123,
			"count":4848,
			"type":"SCALAR"
		},
		{
			"bufferView":4,
			"componentType":5126,
			"count":2250,
			"max":[
				0.6469985246658325,
				1.2628741264343262,
				11.71811294555664
			],
			"min":[
				0.4249279499053955,
				-0.18104088306427002,
				9.576327323913574
			],
			"type":"VEC3"
		},
		{
			"bufferView":5,
			"componentType":5126,
			"count":2250,
			"type":"VEC3"
		},
		{
			"bufferView":6,
			"componentType":5126,
			"count":2250,
			"type":"VEC2"
		},
		{
			"bufferView":7,
			"componentType":5123,
			"count":4980,
			"type":"SCALAR"
		},
		{
			"bufferView":8,
			"componentType":5126,
			"count":2250,
			"max":[
				0.6469985246658325,
				1.2628741264343262,
				11.71811294555664
			],
			"min":[
				0.4249279499053955,
				-0.18104088306427002,
				9.576327323913574
			],
			"type":"VEC3"
		},
		{
			"bufferView":9,
			"componentType":5126,
			"count":2250,
			"type":"VEC3"
		},
		{
			"bufferView":10,
			"componentType":5126,
			"count":2250,
			"type":"VEC2"
		},
		{
			"bufferView":11,
			"componentType":5126,
			"count":2304,
			"max":[
				0.6681771874427795,
				1.2628741264343262,
				11.973852157592773
			],
			"min":[
				0.40374070405960083,
				-0.18104088306427002,
				9.32043743133545
			],
			"type":"VEC3"
		},
		{
			"bufferView":12,
			"componentType":5126,
			"count":2304,
			"type":"VEC3"
		},
		{
			"bufferView":13,
			"componentType":5126,
			"count":2304,
			"type":"VEC2"
		},
		{
			"bufferView":14,
			"componentType":5123,
			"count":4980,
			"type":"SCALAR"
		},
		{
			"bufferView":15,
			"componentType":5126,
			"count":1311,
			"max":[
				0.2878721356391907,
				-0.10603661090135574,
				0.617418110370636
			],
			"min":[
				-0.4418945908546448,
				-0.2689360976219177,
				0.23249587416648865
			],
			"type":"VEC3"
		},
		{
			"bufferView":16,
			"componentType":5126,
			"count":1311,
			"type":"VEC3"
		},
		{
			"bufferView":17,
			"componentType":5126,
			"count":1311,
			"type":"VEC2"
		},
		{
			"bufferView":18,
			"componentType":5123,
			"count":7392,
			"type":"SCALAR"
		},
		{
			"bufferView":19,
			"componentType":5126,
			"count":1311,
			"max":[
				0.2878721356391907,
				-0.10603661090135574,
				0.617418110370636
			],
			"min":[
				-0.4418945908546448,
				-0.2689360976219177,
				0.23249587416648865
			],
			"type":"VEC3"
		},
		{
			"bufferView":20,
			"componentType":5126,
			"count":1311,
			"type":"VEC3"
		},
		{
			"bufferView":21,
			"componentType":5126,
			"count":1311,
			"type":"VEC2"
		},
		{
			"bufferView":22,
			"componentType":5126,
			"count":1311,
			"max":[
				0.2878721356391907,
				-0.10603661090135574,
				0.617418110370636
			],
			"min":[
				-0.4418945908546448,
				-0.2689360976219177,
				0.23249587416648865
			],
			"type":"VEC3"
		},
		{
			"bufferView":23,
			"componentType":5126,
			"count":1311,
			"type":"VEC3"
		},
		{
			"bufferView":24,
			"componentType":5126,
			"count":1311,
			"type":"VEC2"
		}
	],
	"bufferViews":[
		{
			"buffer":0,
			"byteLength":21048,
			"byteOffset":0,
			"target":34962
		},
		{
			"buffer":0,
			"byteLength":21048,
			"byteOffset":21048,
			"target":34962
		},
		{
			"buffer":0,
			"byteLength":14032,
			"byteOffset":42096,
			"target":34962
		},
		{
			"buffer":0,
			"byteLength":9696,
			"byteOffset":56128,
			"target":34963
		},
		{
			"buffer":0,
			"byteLength":27000,
			"byteOffset":65824,
			"target":34962
		},
		{
			"buffer":0,
			"byteLength":27000,
			"byteOffset":92824,
			"target":34962
		},
		{
			"buffer":0,
			"byteLength":18000,
			"byteOffset":119824,
			"target":34962
		},
		{
			"buffer":0,
			"byteLength":9960,
			"byteOffset":137824,
			"target":34963
		},
		{
			"buffer":0,
			"byteLength":27000,
			"byteOffset":147784,
			"target":34962
		},
		{
			"buffer":0,
			"byteLength":27000,
			"byteOffset":174784,
			"target":34962
		},
		{
			"buffer":0,
			"byteLength":18000,
			"byteOffset":201784,
			"target":34962
		},
		{
			"buffer":0,
			"byteLength":27648,
			"byteOffset":219784,
			"target":34962
		},
		{
			"buffer":0,
			"byteLength":27648,
			"byteOffset":247432,
			"target":34962
		},
		{
			"buffer":0,
			"byteLength":18432,
			"byteOffset":275080,
			"target":34962
		},
		{
			"buffer":0,
			"byteLength":9960,
			"byteOffset":293512,
			"target":34963
		},
		{
			"buffer":0,
			"byteLength":15732,
			"byteOffset":303472,
			"target":34962
		},
		{
			"buffer":0,
			"byteLength":15732,
			"byteOffset":319204,
			"target":34962
		},
		{
			"buffer":0,
			"byteLength":10488,
			"byteOffset":334936,
			"target":34962
		},
		{
			"buffer":0,
			"byteLength":14784,
			"byteOffset":345424,
			"target":34963
		},
		{
			"buffer":0,
			"byteLength":15732,
			"byteOffset":360208,
			"target":34962
		},
		{
			"buffer":0,
			"byteLength":15732,
			"byteOffset":375940,
			"target":34962
		},
		{
			"buffer":0,
			"byteLength":10488,
			"byteOffset":391672,
			"target":34962
		},
		{
			"buffer":0,
			"byteLength":15732,
			"byteOffset":402160,
			"target":34962
		},
		{
			"buffer":0,
			"byteLength":15732,
			"byteOffset":417892,
			"target":34962
		},
		{
			"buffer":0,
			"byteLength":10488,
			"byteOffset":433624,
			"target":34962
		}
	],
	"buffers":[
		{
			"byteLength":444112,
			"uri":"gamma_ray_and_neutron_spectrometer2.bin"
		}
	]
}
