{
	"asset":{
		"generator":"Khronos glTF Blender I/O v3.6.27",
		"version":"2.0"
	},
	"scene":0,
	"scenes":[
		{
			"name":"Scene",
			"nodes":[
				0
			]
		}
	],
	"nodes":[
		{
			"mesh":0,
			"name":"Psyche_Spacecraft_-_Left_Solar_Panels"
		}
	],
	"meshes":[
		{
			"name":"Psyche_Spacecraft_-_Left_Solar_Panels",
			"primitives":[
				{
					"attributes":{
						"POSITION":0,
						"NORMAL":1
					},
					"indices":2
				}
			]
		}
	],
	"accessors":[
		{
			"bufferView":0,
			"componentType":5126,
			"count":23887,
			"max":[
				162,
				30.25,
				-122
			],
			"min":[
				-75.24500274658203,
				19.600000381469727,
				-264.20001220703125
			],
			"type":"VEC3"
		},
		{
			"bufferView":1,
			"componentType":5126,
			"count":23887,
			"type":"VEC3"
		},
		{
			"bufferView":2,
			"componentType":5123,
			"count":34668,
			"type":"SCALAR"
		}
	],
	"bufferViews":[
		{
			"buffer":0,
			"byteLength":286644,
			"byteOffset":0,
			"target":34962
		},
		{
			"buffer":0,
			"byteLength":286644,
			"byteOffset":286644,
			"target":34962
		},
		{
			"buffer":0,
			"byteLength":69336,
			"byteOffset":573288,
			"target":34963
		}
	],
	"buffers":[
		{
			"byteLength":642624,
			"uri":"left_panel.bin"
		}
	]
}
