{
	"asset":{
		"generator":"Khronos glTF Blender I/O v3.6.27",
		"version":"2.0"
	},
	"scene":0,
	"scenes":[
		{
			"name":"Scene",
			"nodes":[
				0
			]
		}
	],
	"nodes":[
		{
			"mesh":0,
			"name":"Psyche_Spacecraft_-_Antenna"
		}
	],
	"meshes":[
		{
			"name":"Psyche_Spacecraft_-_Antenna",
			"primitives":[
				{
					"attributes":{
						"POSITION":0,
						"NORMAL":1
					},
					"indices":2
				}
			]
		}
	],
	"accessors":[
		{
			"bufferView":0,
			"componentType":5126,
			"count":7818,
			"max":[
				29.5,
				73.91000366210938,
				20.91400146484375
			],
			"min":[
				-7.000000953674316,
				46,
				-8
			],
			"type":"VEC3"
		},
		{
			"bufferView":1,
			"componentType":5126,
			"count":7818,
			"type":"VEC3"
		},
		{
			"bufferView":2,
			"componentType":5123,
			"count":8787,
			"type":"SCALAR"
		}
	],
	"bufferViews":[
		{
			"buffer":0,
			"byteLength":93816,
			"byteOffset":0,
			"target":34962
		},
		{
			"buffer":0,
			"byteLength":93816,
			"byteOffset":93816,
			"target":34962
		},
		{
			"buffer":0,
			"byteLength":17574,
			"byteOffset":187632,
			"target":34963
		}
	],
	"buffers":[
		{
			"byteLength":205208,
			"uri":"Antenna.bin"
		}
	]
}
