{
	"asset":{
		"generator":"Khronos glTF Blender I/O v3.6.27",
		"version":"2.0"
	},
	"scene":0,
	"scenes":[
		{
			"name":"Scene",
			"nodes":[
				0
			]
		}
	],
	"nodes":[
		{
			"mesh":0,
			"name":"Psyche_Spacecraft_-_Right_Solar_Panels"
		}
	],
	"materials":[
		{
			"doubleSided":true,
			"name":"Material.001",
			"pbrMetallicRoughness":{
				"baseColorFactor":[
					0.00028000056045129895,
					0.0018138641025871038,
					0.07000000029802322,
					1
				],
				"metallicFactor":0,
				"roughnessFactor":0.5
			}
		},
		{
			"doubleSided":true,
			"name":"Material.002",
			"pbrMetallicRoughness":{
				"baseColorFactor":[
					0.11100000143051147,
					0.11100000143051147,
					0.11100000143051147,
					1
				],
				"metallicFactor":0,
				"roughnessFactor":0.5
			}
		},
		{
			"doubleSided":true,
			"name":"Material.003",
			"pbrMetallicRoughness":{
				"baseColorFactor":[
					0.800000011920929,
					0.190670445561409,
					0.01680002175271511,
					1
				],
				"metallicFactor":0,
				"roughnessFactor":0.5
			}
		}
	],
	"meshes":[
		{
			"name":"Psyche_Spacecraft_-_Right_Solar_Panels",
			"primitives":[
				{
					"attributes":{
						"POSITION":0,
						"NORMAL":1
					},
					"indices":2,
					"material":0
				},
				{
					"attributes":{
						"POSITION":3,
						"NORMAL":4
					},
					"indices":5,
					"material":1
				},
				{
					"attributes":{
						"POSITION":6,
						"NORMAL":7
					},
					"indices":8,
					"material":2
				}
			]
		}
	],
	"accessors":[
		{
			"bufferView":0,
			"componentType":5126,
			"count":23039,
			"max":[
				162,
				24.600000381469727,
				-122
			],
			"min":[
				-29.450000762939453,
				19.600000381469727,
				-264.20001220703125
			],
			"type":"VEC3"
		},
		{
			"bufferView":1,
			"componentType":5126,
			"count":23039,
			"type":"VEC3"
		},
		{
			"bufferView":2,
			"componentType":5123,
			"count":32874,
			"type":"SCALAR"
		},
		{
			"bufferView":3,
			"componentType":5126,
			"count":971,
			"max":[
				162,
				30.25,
				-122
			],
			"min":[
				-75.24500274658203,
				19.600000381469727,
				-264.20001220703125
			],
			"type":"VEC3"
		},
		{
			"bufferView":4,
			"componentType":5126,
			"count":971,
			"type":"VEC3"
		},
		{
			"bufferView":5,
			"componentType":5123,
			"count":1671,
			"type":"SCALAR"
		},
		{
			"bufferView":6,
			"componentType":5126,
			"count":83,
			"max":[
				135.28599548339844,
				24.600000381469727,
				-122.74400329589844
			],
			"min":[
				6.429999828338623,
				24.384000778198242,
				-263.45599365234375
			],
			"type":"VEC3"
		},
		{
			"bufferView":7,
			"componentType":5126,
			"count":83,
			"type":"VEC3"
		},
		{
			"bufferView":8,
			"componentType":5123,
			"count":123,
			"type":"SCALAR"
		}
	],
	"bufferViews":[
		{
			"buffer":0,
			"byteLength":276468,
			"byteOffset":0,
			"target":34962
		},
		{
			"buffer":0,
			"byteLength":276468,
			"byteOffset":276468,
			"target":34962
		},
		{
			"buffer":0,
			"byteLength":65748,
			"byteOffset":552936,
			"target":34963
		},
		{
			"buffer":0,
			"byteLength":11652,
			"byteOffset":618684,
			"target":34962
		},
		{
			"buffer":0,
			"byteLength":11652,
			"byteOffset":630336,
			"target":34962
		},
		{
			"buffer":0,
			"byteLength":3342,
			"byteOffset":641988,
			"target":34963
		},
		{
			"buffer":0,
			"byteLength":996,
			"byteOffset":645332,
			"target":34962
		},
		{
			"buffer":0,
			"byteLength":996,
			"byteOffset":646328,
			"target":34962
		},
		{
			"buffer":0,
			"byteLength":246,
			"byteOffset":647324,
			"target":34963
		}
	],
	"buffers":[
		{
			"byteLength":647572,
			"uri":"RightWing.bin"
		}
	]
}
